<?xml version="1.0" encoding="UTF-8" standalone="no"?>
<!DOCTYPE svg PUBLIC "-//W3C//DTD SVG 1.1//EN" "http://www.w3.org/Graphics/SVG/1.1/DTD/svg11.dtd">
<svg width="100%" height="100%" viewBox="0 0 231 61" version="1.1" xmlns="http://www.w3.org/2000/svg" xmlns:xlink="http://www.w3.org/1999/xlink" xml:space="preserve" xmlns:serif="http://www.serif.com/" style="fill-rule:evenodd;clip-rule:evenodd;stroke-linecap:round;stroke-linejoin:round;stroke-miterlimit:1.5;">
    <g transform="matrix(1,0,0,1,-498.693,-629.5)">
        <g transform="matrix(1,0,0,1,0,-30)">
            <g transform="matrix(1,0,0,1,-94.0153,0)">
                <g transform="matrix(1,0,0,1,47.6609,30)">
                    <g transform="matrix(0.653374,0,0,0.653374,544.59,551.409)">
                        <path d="M32.1,143.8L10.2,143.8L10.2,158.9L31.3,158.9L31.3,167.8L10.2,167.8L10.2,197.7L0.7,197.7L0.7,134.8L32.1,134.8L32.1,143.8Z" style="fill-rule:nonzero;fill:rgb(51,51,51);"/>
                    </g>
                    <g transform="matrix(0.653374,0,0,0.653374,544.59,551.409)">
                        <path d="M78.7,144.2L71,148.8C69.6,146.3 68.2,144.7 66.9,143.9C65.5,143 63.8,142.6 61.6,142.6C59,142.6 56.8,143.3 55,144.8C53.3,146.3 52.4,148.1 52.4,150.3C52.4,153.4 54.7,155.8 59.2,157.7L65.5,160.3C70.6,162.4 74.3,164.9 76.7,167.9C79.1,170.9 80.2,174.5 80.2,178.8C80.2,184.6 78.3,189.4 74.4,193.1C70.5,196.9 65.7,198.8 59.9,198.8C54.4,198.8 49.9,197.2 46.4,194C42.9,190.8 40.7,186.2 39.8,180.4L49.4,178.3C49.8,182 50.6,184.5 51.7,186C53.7,188.7 56.5,190.1 60.3,190.1C63.3,190.1 65.7,189.1 67.7,187.1C69.7,185.1 70.6,182.6 70.6,179.6C70.6,178.4 70.4,177.3 70.1,176.2C69.8,175.2 69.2,174.2 68.5,173.4C67.8,172.5 66.9,171.7 65.7,171C64.6,170.3 63.2,169.5 61.6,168.9L55.5,166.4C46.9,162.8 42.6,157.4 42.6,150.4C42.6,145.7 44.4,141.7 48,138.6C51.6,135.4 56.1,133.8 61.5,133.8C69,133.6 74.6,137.1 78.7,144.2Z" style="fill-rule:nonzero;fill:rgb(51,51,51);"/>
                    </g>
                    <g transform="matrix(0.653374,0,0,0.653374,544.59,551.409)">
                        <path d="M138.2,138.2L138.2,149.4C132.7,144.8 127,142.5 121.2,142.5C114.7,142.5 109.3,144.8 104.9,149.5C100.4,154.1 98.2,159.8 98.2,166.4C98.2,173 100.4,178.6 104.9,183.1C109.4,187.6 114.8,189.9 121.3,189.9C124.6,189.9 127.5,189.4 129.8,188.3C131.1,187.8 132.5,187 133.9,186.1C135.3,185.2 136.8,184.1 138.3,182.8L138.3,194.2C132.9,197.3 127.2,198.8 121.2,198.8C112.2,198.8 104.5,195.7 98.2,189.4C91.9,183.1 88.7,175.4 88.7,166.5C88.7,158.5 91.3,151.4 96.6,145.1C103.1,137.4 111.5,133.6 121.9,133.6C127.5,133.6 133,135.1 138.2,138.2Z" style="fill-rule:nonzero;fill:rgb(51,51,51);"/>
                    </g>
                </g>
                <g transform="matrix(0.432692,0,0,0.428571,666.731,432.857)">
                    <g transform="matrix(1,0,0,1,1.70744,32.7931)">
                        <path d="M98.293,497.207L98.293,637.207L358.293,567.207L98.293,497.207Z" style="fill:white;stroke:rgb(51,51,51);;stroke-width:2.32px;"/>
                    </g>
                    <path d="M152,609L152,656L100,670L100,609L152,609ZM170,651.154L170,609L326.571,609L170,651.154ZM152,544L152,591L100,591L100,530L152,544ZM326.571,591L170,591L170,548.846L326.571,591Z" style="fill:rgb(1,35,107);"/>
                </g>
            </g>
        </g>
    </g>
</svg>
