<?xml version="1.0" encoding="UTF-8" standalone="no"?>
<!DOCTYPE svg PUBLIC "-//W3C//DTD SVG 1.1//EN" "http://www.w3.org/Graphics/SVG/1.1/DTD/svg11.dtd">
<svg width="100%" height="100%" viewBox="0 0 1000 250" version="1.1" xmlns="http://www.w3.org/2000/svg" xmlns:xlink="http://www.w3.org/1999/xlink" xml:space="preserve" xmlns:serif="http://www.serif.com/" style="fill-rule:evenodd;clip-rule:evenodd;stroke-linejoin:round;stroke-miterlimit:1.41421;">
    <g transform="matrix(1,0,0,1,-80,-210)">
        <g>
            <g transform="matrix(1.01735,0,0,1.12396,-22.7561,-10.3053)">
                <rect x="101.003" y="196.008" width="982.943" height="222.428" style="fill:none;"/>
            </g>
            <g transform="matrix(1,0,0,1,-7.53903,3.16159)">
                <path d="M123.145,252.945C119.183,240.408 138.3,232.977 143.961,247.227C151.454,266.087 172.867,346.333 172.867,346.333C172.867,346.333 179.248,300.35 201.334,263.369C223.26,226.656 248.631,220.488 254.298,220.514C266.871,220.572 267.126,233.973 258.754,239.614C252.688,243.701 241.572,248.082 233.004,257.724C208.052,285.806 202.151,316.741 195.899,341.667C186.399,379.546 189.957,388.237 188.025,401.931C186.106,415.534 169.621,413.88 166.383,403.984C156.508,373.806 131.955,280.816 123.145,252.945Z" style="fill:rgb(51,51,51);"/>
            </g>
            <g transform="matrix(1,0,0,1,-7.53903,3.16159)">
                <path d="M198.639,421.784C198.748,405.028 203.44,354.328 212.698,325.681C222.2,296.277 230.589,270.219 250.942,259.14C272.372,247.476 291.013,253.184 303.206,268.687C310.806,278.35 311.409,301.251 305.393,315.379C291.732,347.459 259.372,354.539 261.229,357.949C268.492,371.284 331.502,421.324 344.849,421.848C355.582,422.269 359.393,443.203 345.968,443.163C326.531,443.105 304.146,429.442 279.014,406.967C259.4,389.426 232.762,361.998 226.946,364.81C221.296,367.542 222.06,412.238 220.38,422.885C218.55,434.481 198.55,435.45 198.639,421.784ZM231.346,341.935C231.346,341.935 237.516,308.466 254.25,286.678C258.618,280.991 266.431,274.927 274.378,274.965C284.016,275.011 287.204,287.504 286.569,295.201C285.864,303.75 278.194,318.545 269.007,326.555C259.819,334.565 231.346,341.935 231.346,341.935Z" style="fill:rgb(51,51,51);"/>
            </g>
            <g transform="matrix(1,0,0,1,-7.53903,3.16159)">
                <path d="M337.411,341.726C326.651,334.214 333.491,320.468 347.42,319.285C355.257,318.62 390.896,323.053 394.096,324.12C398.728,325.666 397.145,330.991 394.408,331.863C389.291,333.492 363.242,330.963 363.391,333.898C363.539,336.834 389.089,344.911 395.575,351.144C401.466,356.805 405.239,367.138 398.877,372.991C391.337,379.928 354.853,389.986 346.325,392.186C335.594,394.956 334.249,380.146 344.039,375.34C350.3,372.266 382.436,365.904 381.856,362.445C381.064,357.717 345.457,347.344 337.411,341.726Z" style="fill:rgb(51,51,51);"/>
            </g>
            <g transform="matrix(1,0,0,1,-7.53903,3.16159)">
                <path d="M432.472,357.879C438.084,351.537 443.795,355.115 443.202,360.735C442.657,365.91 435.459,381.446 432.367,390.438C429.531,398.687 426.284,410.098 425.443,415.619C425.075,418.035 427.512,421.025 426.511,425.409C425.918,428.004 412.867,435.033 410.921,421.709C409.677,413.191 415.353,400.278 418.606,389.872C421.729,379.881 428.374,362.51 432.472,357.879Z" style="fill:rgb(51,51,51);"/>
            </g>
            <g transform="matrix(1,0,0,1,-7.53903,3.16159)">
                <path d="M442.103,374.301C434.754,381.138 437.796,391.608 450.231,388.068C460.218,385.225 495.376,367.789 503.706,356.041C511.548,344.981 515.698,329.149 493.842,320.861C484.455,317.301 464.956,317.093 453.267,318.658C440.671,320.344 420.832,324.961 412.943,329.005C408.437,331.315 405.676,337.357 405.813,342.419C405.952,347.559 410.129,360.183 413.778,359.848C418.856,359.381 413.484,345.598 427.624,339.618C437.213,335.564 459.89,333.619 470.53,333.74C477.845,333.824 491.361,335.666 491.459,340.346C491.701,351.853 478.878,356.079 470.652,361.738C462.556,367.308 446.031,370.647 442.103,374.301Z" style="fill:rgb(51,51,51);"/>
            </g>
            <g transform="matrix(1,0,0,1,-7.53903,3.16159)">
                <path d="M549.867,325.066C568.462,315.412 606.422,312.227 617.278,329.679C623.025,338.917 630.005,367.507 613.232,375.91C597.896,383.593 568.227,392.025 539.936,386.804C529.34,384.848 511.618,376.251 513.813,361.345C514.986,353.375 538.115,331.167 549.867,325.066ZM548.986,344.773C573.996,329.626 594.351,330.12 604.079,337.684C609.608,341.982 618.301,357.368 595.63,366.556C584.709,370.982 565.277,374.355 544.777,372.462C539.585,371.982 530.178,366.399 531.063,361.943C531.948,357.487 541.482,349.318 548.986,344.773Z" style="fill:rgb(51,51,51);"/>
            </g>
            <g transform="matrix(1,0,0,1,-7.53903,3.16159)">
                <path d="M703.851,322.77C713.325,323.421 714.351,336.471 704.476,337.654C694.86,338.805 666.827,334.841 655.136,343.509C642.129,353.152 644.58,375.09 644.821,381.974C645.214,393.188 631.15,390.692 630.84,380.875C630.564,372.169 632.585,338.738 645.072,328.954C657.56,319.169 693.066,322.028 703.851,322.77Z" style="fill:rgb(51,51,51);"/>
            </g>
            <g transform="matrix(1,0,0,1,-7.53903,3.16159)">
                <path d="M770.007,312.535C775.357,305.692 773.23,282.265 775.011,275.712C778.125,264.252 786.945,267.468 788.192,276.783C789.019,282.966 785.44,308.22 787.925,310.845C790.43,313.491 806.877,309.673 820.894,310.653C829.156,311.23 828.359,320.533 821.866,321.828C811.869,323.823 792.943,322.266 785.637,330.354C779.705,336.922 783.907,367.493 781.94,375.415C777.254,394.282 768.819,382.925 767.585,375.934C766.253,368.387 769.604,334.079 767.735,332.593C764.005,329.625 747.907,334.553 736.739,336.197C734.594,336.513 735.025,343.363 730.077,343.496C726.822,343.583 713.542,336.033 716.894,328.409C721.407,318.143 762.99,321.51 770.007,312.535Z" style="fill:rgb(51,51,51);"/>
            </g>
            <g transform="matrix(1,0,0,1,114.506,3.16159)">
                <path d="M770.007,312.535C775.357,305.692 773.876,282.793 775.274,276.147C779.566,255.734 787.279,267.464 788.455,277.218C789.201,283.412 785.44,308.22 787.925,310.845C790.43,313.491 806.877,309.673 820.894,310.653C829.156,311.23 828.359,320.533 821.866,321.828C811.869,323.823 792.943,322.266 785.637,330.354C779.705,336.922 783.972,366.279 782.005,374.202C777.32,393.069 768.658,381.173 767.423,374.182C766.091,366.635 769.604,334.079 767.735,332.593C764.005,329.625 747.907,334.553 736.739,336.197C734.594,336.513 735.025,343.363 730.077,343.496C726.822,343.583 713.542,336.033 716.894,328.409C721.407,318.143 762.99,321.51 770.007,312.535Z" style="fill:rgb(51,51,51);"/>
            </g>
            <g transform="matrix(1,0,0,1,-7.53903,3.16159)">
                <path d="M815.165,364.847C821.145,360.175 827.682,360.287 831.048,362.284C836.355,365.432 838.358,376.341 830.746,381.711C824.879,385.849 817.593,389.506 810.402,384.458C804.251,380.141 809.97,368.906 815.165,364.847Z" style="fill:rgb(51,51,51);"/>
            </g>
            <g transform="matrix(1,0,0,1,-7.53903,3.16159)">
                <path d="M946.657,328.8C952.579,334.425 966.436,364.645 971.183,365.435C977.656,366.513 1004.23,324.811 1042.33,309.438C1049.47,306.556 1058.23,318.723 1047.34,321.301C1033.67,324.539 979.557,388.029 966.324,388.262C956.667,388.433 948.348,363.737 934.173,333.945C932.155,329.706 937.482,320.087 946.657,328.8Z" style="fill:rgb(51,51,51);"/>
            </g>
        </g>
    </g>
</svg>
