<?xml version="1.0" encoding="UTF-8" standalone="no"?>
<!DOCTYPE svg PUBLIC "-//W3C//DTD SVG 1.1//EN" "http://www.w3.org/Graphics/SVG/1.1/DTD/svg11.dtd">
<svg width="100%" height="100%" viewBox="0 0 30 30" version="1.1" xmlns="http://www.w3.org/2000/svg" xmlns:xlink="http://www.w3.org/1999/xlink" xml:space="preserve" xmlns:serif="http://www.serif.com/" style="fill-rule:evenodd;clip-rule:evenodd;stroke-linejoin:round;stroke-miterlimit:2;">
    <g transform="matrix(0.23326,0,0,0.23326,-154.878,-100.159)">
        <path d="M787.495,557.997L669.059,557.997L669.059,537.155L787.495,537.155L787.495,557.997ZM693.46,429.385L693.46,526.48L669.059,526.48L669.059,429.385L693.46,429.385ZM775.812,487.337L787.495,487.337L787.495,508.181L775.812,508.181L775.812,526.48L751.411,526.48L751.411,508.181L703.627,508.181L703.627,487.506L751.495,429.385L775.812,429.385L775.812,487.337ZM728.095,487.337L751.411,487.337L751.411,459.027L728.095,487.337Z" style="fill:white;"/>
    </g>
</svg>
