<?xml version="1.0" encoding="UTF-8" standalone="no"?>
<!DOCTYPE svg PUBLIC "-//W3C//DTD SVG 1.1//EN" "http://www.w3.org/Graphics/SVG/1.1/DTD/svg11.dtd">
<svg width="100%" height="100%" viewBox="0 0 300 150" version="1.1" xmlns="http://www.w3.org/2000/svg" xmlns:xlink="http://www.w3.org/1999/xlink" xml:space="preserve" xmlns:serif="http://www.serif.com/" style="fill-rule:evenodd;clip-rule:evenodd;stroke-linejoin:round;stroke-miterlimit:2;">
    <g transform="matrix(1,0,0,1,-40,-85)">
        <g transform="matrix(0.25,0,0,0.25,190,160)">
            <g transform="matrix(1,0,0,1,-600,-300)">
                <path d="M0,0L300,0L312.375,12.375L887.625,12.375L900,0L1200,0L1200,600L900,600L887.625,587.625L312.375,587.625L300,600L0,600L0,0Z" style="fill:rgb(255,0,0);fill-rule:nonzero;"/>
                <path d="M300,0L900,0L900,600L300,600L300,0ZM611.25,553.75L605.625,445.875C605.617,445.693 605.612,445.511 605.612,445.328C605.612,438.814 610.973,433.453 617.487,433.453C618.162,433.453 618.835,433.511 619.5,433.625L726.875,452.5L712.375,412.5C711.172,409.245 712.181,405.562 714.875,403.375L832.5,308.125L806,295.75C802.314,294.008 800.481,289.749 801.75,285.875L825,214.375L757.25,228.75C753.48,229.536 749.644,227.539 748.125,224L735,193.125L682.125,249.875C680.591,251.493 678.458,252.41 676.229,252.41C671.771,252.41 668.104,248.742 668.104,244.285C668.104,243.77 668.153,243.256 668.25,242.75L693.75,111.25L652.875,134.875C651.629,135.605 650.211,135.99 648.767,135.99C645.694,135.99 642.874,134.248 641.5,131.5L600,50L558.5,131.5C557.126,134.248 554.306,135.99 551.233,135.99C549.789,135.99 548.371,135.605 547.125,134.875L506.25,111.25L531.75,242.75C531.847,243.256 531.896,243.77 531.896,244.285C531.896,248.742 528.229,252.41 523.771,252.41C521.542,252.41 519.409,251.493 517.875,249.875L465,193.125L451.875,224C450.356,227.539 446.52,229.536 442.75,228.75L375,214.375L398.25,285.875C399.519,289.749 397.686,294.008 394,295.75L367.5,308.125L485.125,403.375C487.819,405.562 488.828,409.245 487.625,412.5L473.125,452.5L580.5,433.625C581.165,433.511 581.838,433.453 582.513,433.453C589.027,433.453 594.388,438.814 594.388,445.328C594.388,445.511 594.383,445.693 594.375,445.875L588.75,553.75L611.25,553.75Z" style="fill:white;fill-rule:nonzero;"/>
            </g>
        </g>
    </g>
</svg>
