<?xml version="1.0" encoding="UTF-8" standalone="no"?>
<!DOCTYPE svg PUBLIC "-//W3C//DTD SVG 1.1//EN" "http://www.w3.org/Graphics/SVG/1.1/DTD/svg11.dtd">
<svg width="100%" height="100%" viewBox="0 0 300 150" version="1.1" xmlns="http://www.w3.org/2000/svg" xmlns:xlink="http://www.w3.org/1999/xlink" xml:space="preserve" xmlns:serif="http://www.serif.com/" style="fill-rule:evenodd;clip-rule:evenodd;stroke-linejoin:round;stroke-miterlimit:2;">
    <g transform="matrix(1,0,0,1,-900,-150)">
        <g transform="matrix(0.277778,0,0,0.277778,937.5,150)">
            <g transform="matrix(1.33333,0,0,1,-135,0)">
                <rect x="0" y="0" width="810" height="540" style="fill:rgb(0,51,153);"/>
            </g>
            <g transform="matrix(30,0,0,30,405,270)">
                <g id="s" transform="matrix(1,0,0,1,0,-6)">
                    <g id="c">
                        <g id="t" transform="matrix(0.951057,0.309017,-0.309017,0.951057,0,-1)">
                            <path d="M0,0L0,1L0.5,1L0,0Z" style="fill:rgb(255,204,0);fill-rule:nonzero;"/>
                        </g>
                        <g id="t1" serif:id="t" transform="matrix(-0.951057,0.309017,0.309017,0.951057,0,-1)">
                            <path d="M0,0L0,1L0.5,1L0,0Z" style="fill:rgb(255,204,0);fill-rule:nonzero;"/>
                        </g>
                    </g>
                    <g id="a">
                        <g id="c1" serif:id="c" transform="matrix(0.309017,0.951057,-0.951057,0.309017,0,0)">
                            <g id="t2" serif:id="t" transform="matrix(0.951057,0.309017,-0.309017,0.951057,0,-1)">
                                <path d="M0,0L0,1L0.5,1L0,0Z" style="fill:rgb(255,204,0);fill-rule:nonzero;"/>
                            </g>
                            <g id="t3" serif:id="t" transform="matrix(-0.951057,0.309017,0.309017,0.951057,0,-1)">
                                <path d="M0,0L0,1L0.5,1L0,0Z" style="fill:rgb(255,204,0);fill-rule:nonzero;"/>
                            </g>
                        </g>
                        <g id="c2" serif:id="c" transform="matrix(-0.809017,0.587785,-0.587785,-0.809017,0,0)">
                            <g id="t4" serif:id="t" transform="matrix(0.951057,0.309017,-0.309017,0.951057,0,-1)">
                                <path d="M0,0L0,1L0.5,1L0,0Z" style="fill:rgb(255,204,0);fill-rule:nonzero;"/>
                            </g>
                            <g id="t5" serif:id="t" transform="matrix(-0.951057,0.309017,0.309017,0.951057,0,-1)">
                                <path d="M0,0L0,1L0.5,1L0,0Z" style="fill:rgb(255,204,0);fill-rule:nonzero;"/>
                            </g>
                        </g>
                    </g>
                    <g id="a1" serif:id="a" transform="matrix(-1,0,0,1,0,0)">
                        <g id="c3" serif:id="c" transform="matrix(0.309017,0.951057,-0.951057,0.309017,0,0)">
                            <g id="t6" serif:id="t" transform="matrix(0.951057,0.309017,-0.309017,0.951057,0,-1)">
                                <path d="M0,0L0,1L0.5,1L0,0Z" style="fill:rgb(255,204,0);fill-rule:nonzero;"/>
                            </g>
                            <g id="t7" serif:id="t" transform="matrix(-0.951057,0.309017,0.309017,0.951057,0,-1)">
                                <path d="M0,0L0,1L0.5,1L0,0Z" style="fill:rgb(255,204,0);fill-rule:nonzero;"/>
                            </g>
                        </g>
                        <g id="c4" serif:id="c" transform="matrix(-0.809017,0.587785,-0.587785,-0.809017,0,0)">
                            <g id="t8" serif:id="t" transform="matrix(0.951057,0.309017,-0.309017,0.951057,0,-1)">
                                <path d="M0,0L0,1L0.5,1L0,0Z" style="fill:rgb(255,204,0);fill-rule:nonzero;"/>
                            </g>
                            <g id="t9" serif:id="t" transform="matrix(-0.951057,0.309017,0.309017,0.951057,0,-1)">
                                <path d="M0,0L0,1L0.5,1L0,0Z" style="fill:rgb(255,204,0);fill-rule:nonzero;"/>
                            </g>
                        </g>
                    </g>
                </g>
                <g id="s1" serif:id="s" transform="matrix(1,0,0,1,0,6)">
                    <g id="c5" serif:id="c">
                        <g id="t10" serif:id="t" transform="matrix(0.951057,0.309017,-0.309017,0.951057,0,-1)">
                            <path d="M0,0L0,1L0.5,1L0,0Z" style="fill:rgb(255,204,0);fill-rule:nonzero;"/>
                        </g>
                        <g id="t11" serif:id="t" transform="matrix(-0.951057,0.309017,0.309017,0.951057,0,-1)">
                            <path d="M0,0L0,1L0.5,1L0,0Z" style="fill:rgb(255,204,0);fill-rule:nonzero;"/>
                        </g>
                    </g>
                    <g id="a2" serif:id="a">
                        <g id="c6" serif:id="c" transform="matrix(0.309017,0.951057,-0.951057,0.309017,0,0)">
                            <g id="t12" serif:id="t" transform="matrix(0.951057,0.309017,-0.309017,0.951057,0,-1)">
                                <path d="M0,0L0,1L0.5,1L0,0Z" style="fill:rgb(255,204,0);fill-rule:nonzero;"/>
                            </g>
                            <g id="t13" serif:id="t" transform="matrix(-0.951057,0.309017,0.309017,0.951057,0,-1)">
                                <path d="M0,0L0,1L0.5,1L0,0Z" style="fill:rgb(255,204,0);fill-rule:nonzero;"/>
                            </g>
                        </g>
                        <g id="c7" serif:id="c" transform="matrix(-0.809017,0.587785,-0.587785,-0.809017,0,0)">
                            <g id="t14" serif:id="t" transform="matrix(0.951057,0.309017,-0.309017,0.951057,0,-1)">
                                <path d="M0,0L0,1L0.5,1L0,0Z" style="fill:rgb(255,204,0);fill-rule:nonzero;"/>
                            </g>
                            <g id="t15" serif:id="t" transform="matrix(-0.951057,0.309017,0.309017,0.951057,0,-1)">
                                <path d="M0,0L0,1L0.5,1L0,0Z" style="fill:rgb(255,204,0);fill-rule:nonzero;"/>
                            </g>
                        </g>
                    </g>
                    <g id="a3" serif:id="a" transform="matrix(-1,0,0,1,0,0)">
                        <g id="c8" serif:id="c" transform="matrix(0.309017,0.951057,-0.951057,0.309017,0,0)">
                            <g id="t16" serif:id="t" transform="matrix(0.951057,0.309017,-0.309017,0.951057,0,-1)">
                                <path d="M0,0L0,1L0.5,1L0,0Z" style="fill:rgb(255,204,0);fill-rule:nonzero;"/>
                            </g>
                            <g id="t17" serif:id="t" transform="matrix(-0.951057,0.309017,0.309017,0.951057,0,-1)">
                                <path d="M0,0L0,1L0.5,1L0,0Z" style="fill:rgb(255,204,0);fill-rule:nonzero;"/>
                            </g>
                        </g>
                        <g id="c9" serif:id="c" transform="matrix(-0.809017,0.587785,-0.587785,-0.809017,0,0)">
                            <g id="t18" serif:id="t" transform="matrix(0.951057,0.309017,-0.309017,0.951057,0,-1)">
                                <path d="M0,0L0,1L0.5,1L0,0Z" style="fill:rgb(255,204,0);fill-rule:nonzero;"/>
                            </g>
                            <g id="t19" serif:id="t" transform="matrix(-0.951057,0.309017,0.309017,0.951057,0,-1)">
                                <path d="M0,0L0,1L0.5,1L0,0Z" style="fill:rgb(255,204,0);fill-rule:nonzero;"/>
                            </g>
                        </g>
                    </g>
                </g>
                <g id="l">
                    <g id="s2" serif:id="s" transform="matrix(1,0,0,1,-6,0)">
                        <g id="c10" serif:id="c">
                            <g id="t20" serif:id="t" transform="matrix(0.951057,0.309017,-0.309017,0.951057,0,-1)">
                                <path d="M0,0L0,1L0.5,1L0,0Z" style="fill:rgb(255,204,0);fill-rule:nonzero;"/>
                            </g>
                            <g id="t21" serif:id="t" transform="matrix(-0.951057,0.309017,0.309017,0.951057,0,-1)">
                                <path d="M0,0L0,1L0.5,1L0,0Z" style="fill:rgb(255,204,0);fill-rule:nonzero;"/>
                            </g>
                        </g>
                        <g id="a4" serif:id="a">
                            <g id="c11" serif:id="c" transform="matrix(0.309017,0.951057,-0.951057,0.309017,0,0)">
                                <g id="t22" serif:id="t" transform="matrix(0.951057,0.309017,-0.309017,0.951057,0,-1)">
                                    <path d="M0,0L0,1L0.5,1L0,0Z" style="fill:rgb(255,204,0);fill-rule:nonzero;"/>
                                </g>
                                <g id="t23" serif:id="t" transform="matrix(-0.951057,0.309017,0.309017,0.951057,0,-1)">
                                    <path d="M0,0L0,1L0.5,1L0,0Z" style="fill:rgb(255,204,0);fill-rule:nonzero;"/>
                                </g>
                            </g>
                            <g id="c12" serif:id="c" transform="matrix(-0.809017,0.587785,-0.587785,-0.809017,0,0)">
                                <g id="t24" serif:id="t" transform="matrix(0.951057,0.309017,-0.309017,0.951057,0,-1)">
                                    <path d="M0,0L0,1L0.5,1L0,0Z" style="fill:rgb(255,204,0);fill-rule:nonzero;"/>
                                </g>
                                <g id="t25" serif:id="t" transform="matrix(-0.951057,0.309017,0.309017,0.951057,0,-1)">
                                    <path d="M0,0L0,1L0.5,1L0,0Z" style="fill:rgb(255,204,0);fill-rule:nonzero;"/>
                                </g>
                            </g>
                        </g>
                        <g id="a5" serif:id="a" transform="matrix(-1,0,0,1,0,0)">
                            <g id="c13" serif:id="c" transform="matrix(0.309017,0.951057,-0.951057,0.309017,0,0)">
                                <g id="t26" serif:id="t" transform="matrix(0.951057,0.309017,-0.309017,0.951057,0,-1)">
                                    <path d="M0,0L0,1L0.5,1L0,0Z" style="fill:rgb(255,204,0);fill-rule:nonzero;"/>
                                </g>
                                <g id="t27" serif:id="t" transform="matrix(-0.951057,0.309017,0.309017,0.951057,0,-1)">
                                    <path d="M0,0L0,1L0.5,1L0,0Z" style="fill:rgb(255,204,0);fill-rule:nonzero;"/>
                                </g>
                            </g>
                            <g id="c14" serif:id="c" transform="matrix(-0.809017,0.587785,-0.587785,-0.809017,0,0)">
                                <g id="t28" serif:id="t" transform="matrix(0.951057,0.309017,-0.309017,0.951057,0,-1)">
                                    <path d="M0,0L0,1L0.5,1L0,0Z" style="fill:rgb(255,204,0);fill-rule:nonzero;"/>
                                </g>
                                <g id="t29" serif:id="t" transform="matrix(-0.951057,0.309017,0.309017,0.951057,0,-1)">
                                    <path d="M0,0L0,1L0.5,1L0,0Z" style="fill:rgb(255,204,0);fill-rule:nonzero;"/>
                                </g>
                            </g>
                        </g>
                    </g>
                    <g id="s3" serif:id="s" transform="matrix(-0.809017,-0.587785,0.587785,-0.809017,-3,-5.19615)">
                        <g id="c15" serif:id="c">
                            <g id="t30" serif:id="t" transform="matrix(0.951057,0.309017,-0.309017,0.951057,0,-1)">
                                <path d="M0,0L0,1L0.5,1L0,0Z" style="fill:rgb(255,204,0);fill-rule:nonzero;"/>
                            </g>
                            <g id="t31" serif:id="t" transform="matrix(-0.951057,0.309017,0.309017,0.951057,0,-1)">
                                <path d="M0,0L0,1L0.5,1L0,0Z" style="fill:rgb(255,204,0);fill-rule:nonzero;"/>
                            </g>
                        </g>
                        <g id="a6" serif:id="a">
                            <g id="c16" serif:id="c" transform="matrix(0.309017,0.951057,-0.951057,0.309017,0,0)">
                                <g id="t32" serif:id="t" transform="matrix(0.951057,0.309017,-0.309017,0.951057,0,-1)">
                                    <path d="M0,0L0,1L0.5,1L0,0Z" style="fill:rgb(255,204,0);fill-rule:nonzero;"/>
                                </g>
                                <g id="t33" serif:id="t" transform="matrix(-0.951057,0.309017,0.309017,0.951057,0,-1)">
                                    <path d="M0,0L0,1L0.5,1L0,0Z" style="fill:rgb(255,204,0);fill-rule:nonzero;"/>
                                </g>
                            </g>
                            <g id="c17" serif:id="c" transform="matrix(-0.809017,0.587785,-0.587785,-0.809017,0,0)">
                                <g id="t34" serif:id="t" transform="matrix(0.951057,0.309017,-0.309017,0.951057,0,-1)">
                                    <path d="M0,0L0,1L0.5,1L0,0Z" style="fill:rgb(255,204,0);fill-rule:nonzero;"/>
                                </g>
                                <g id="t35" serif:id="t" transform="matrix(-0.951057,0.309017,0.309017,0.951057,0,-1)">
                                    <path d="M0,0L0,1L0.5,1L0,0Z" style="fill:rgb(255,204,0);fill-rule:nonzero;"/>
                                </g>
                            </g>
                        </g>
                        <g id="a7" serif:id="a" transform="matrix(-1,0,0,1,0,0)">
                            <g id="c18" serif:id="c" transform="matrix(0.309017,0.951057,-0.951057,0.309017,0,0)">
                                <g id="t36" serif:id="t" transform="matrix(0.951057,0.309017,-0.309017,0.951057,0,-1)">
                                    <path d="M0,0L0,1L0.5,1L0,0Z" style="fill:rgb(255,204,0);fill-rule:nonzero;"/>
                                </g>
                                <g id="t37" serif:id="t" transform="matrix(-0.951057,0.309017,0.309017,0.951057,0,-1)">
                                    <path d="M0,0L0,1L0.5,1L0,0Z" style="fill:rgb(255,204,0);fill-rule:nonzero;"/>
                                </g>
                            </g>
                            <g id="c19" serif:id="c" transform="matrix(-0.809017,0.587785,-0.587785,-0.809017,0,0)">
                                <g id="t38" serif:id="t" transform="matrix(0.951057,0.309017,-0.309017,0.951057,0,-1)">
                                    <path d="M0,0L0,1L0.5,1L0,0Z" style="fill:rgb(255,204,0);fill-rule:nonzero;"/>
                                </g>
                                <g id="t39" serif:id="t" transform="matrix(-0.951057,0.309017,0.309017,0.951057,0,-1)">
                                    <path d="M0,0L0,1L0.5,1L0,0Z" style="fill:rgb(255,204,0);fill-rule:nonzero;"/>
                                </g>
                            </g>
                        </g>
                    </g>
                    <g id="s4" serif:id="s" transform="matrix(-0.809017,0.587785,-0.587785,-0.809017,-5.19615,-3)">
                        <g id="c20" serif:id="c">
                            <g id="t40" serif:id="t" transform="matrix(0.951057,0.309017,-0.309017,0.951057,0,-1)">
                                <path d="M0,0L0,1L0.5,1L0,0Z" style="fill:rgb(255,204,0);fill-rule:nonzero;"/>
                            </g>
                            <g id="t41" serif:id="t" transform="matrix(-0.951057,0.309017,0.309017,0.951057,0,-1)">
                                <path d="M0,0L0,1L0.5,1L0,0Z" style="fill:rgb(255,204,0);fill-rule:nonzero;"/>
                            </g>
                        </g>
                        <g id="a8" serif:id="a">
                            <g id="c21" serif:id="c" transform="matrix(0.309017,0.951057,-0.951057,0.309017,0,0)">
                                <g id="t42" serif:id="t" transform="matrix(0.951057,0.309017,-0.309017,0.951057,0,-1)">
                                    <path d="M0,0L0,1L0.5,1L0,0Z" style="fill:rgb(255,204,0);fill-rule:nonzero;"/>
                                </g>
                                <g id="t43" serif:id="t" transform="matrix(-0.951057,0.309017,0.309017,0.951057,0,-1)">
                                    <path d="M0,0L0,1L0.5,1L0,0Z" style="fill:rgb(255,204,0);fill-rule:nonzero;"/>
                                </g>
                            </g>
                            <g id="c22" serif:id="c" transform="matrix(-0.809017,0.587785,-0.587785,-0.809017,0,0)">
                                <g id="t44" serif:id="t" transform="matrix(0.951057,0.309017,-0.309017,0.951057,0,-1)">
                                    <path d="M0,0L0,1L0.5,1L0,0Z" style="fill:rgb(255,204,0);fill-rule:nonzero;"/>
                                </g>
                                <g id="t45" serif:id="t" transform="matrix(-0.951057,0.309017,0.309017,0.951057,0,-1)">
                                    <path d="M0,0L0,1L0.5,1L0,0Z" style="fill:rgb(255,204,0);fill-rule:nonzero;"/>
                                </g>
                            </g>
                        </g>
                        <g id="a9" serif:id="a" transform="matrix(-1,0,0,1,0,0)">
                            <g id="c23" serif:id="c" transform="matrix(0.309017,0.951057,-0.951057,0.309017,0,0)">
                                <g id="t46" serif:id="t" transform="matrix(0.951057,0.309017,-0.309017,0.951057,0,-1)">
                                    <path d="M0,0L0,1L0.5,1L0,0Z" style="fill:rgb(255,204,0);fill-rule:nonzero;"/>
                                </g>
                                <g id="t47" serif:id="t" transform="matrix(-0.951057,0.309017,0.309017,0.951057,0,-1)">
                                    <path d="M0,0L0,1L0.5,1L0,0Z" style="fill:rgb(255,204,0);fill-rule:nonzero;"/>
                                </g>
                            </g>
                            <g id="c24" serif:id="c" transform="matrix(-0.809017,0.587785,-0.587785,-0.809017,0,0)">
                                <g id="t48" serif:id="t" transform="matrix(0.951057,0.309017,-0.309017,0.951057,0,-1)">
                                    <path d="M0,0L0,1L0.5,1L0,0Z" style="fill:rgb(255,204,0);fill-rule:nonzero;"/>
                                </g>
                                <g id="t49" serif:id="t" transform="matrix(-0.951057,0.309017,0.309017,0.951057,0,-1)">
                                    <path d="M0,0L0,1L0.5,1L0,0Z" style="fill:rgb(255,204,0);fill-rule:nonzero;"/>
                                </g>
                            </g>
                        </g>
                    </g>
                    <g id="s5" serif:id="s" transform="matrix(0.309017,0.951057,-0.951057,0.309017,-5.19615,3)">
                        <g id="c25" serif:id="c">
                            <g id="t50" serif:id="t" transform="matrix(0.951057,0.309017,-0.309017,0.951057,0,-1)">
                                <path d="M0,0L0,1L0.5,1L0,0Z" style="fill:rgb(255,204,0);fill-rule:nonzero;"/>
                            </g>
                            <g id="t51" serif:id="t" transform="matrix(-0.951057,0.309017,0.309017,0.951057,0,-1)">
                                <path d="M0,0L0,1L0.5,1L0,0Z" style="fill:rgb(255,204,0);fill-rule:nonzero;"/>
                            </g>
                        </g>
                        <g id="a10" serif:id="a">
                            <g id="c26" serif:id="c" transform="matrix(0.309017,0.951057,-0.951057,0.309017,0,0)">
                                <g id="t52" serif:id="t" transform="matrix(0.951057,0.309017,-0.309017,0.951057,0,-1)">
                                    <path d="M0,0L0,1L0.5,1L0,0Z" style="fill:rgb(255,204,0);fill-rule:nonzero;"/>
                                </g>
                                <g id="t53" serif:id="t" transform="matrix(-0.951057,0.309017,0.309017,0.951057,0,-1)">
                                    <path d="M0,0L0,1L0.5,1L0,0Z" style="fill:rgb(255,204,0);fill-rule:nonzero;"/>
                                </g>
                            </g>
                            <g id="c27" serif:id="c" transform="matrix(-0.809017,0.587785,-0.587785,-0.809017,0,0)">
                                <g id="t54" serif:id="t" transform="matrix(0.951057,0.309017,-0.309017,0.951057,0,-1)">
                                    <path d="M0,0L0,1L0.5,1L0,0Z" style="fill:rgb(255,204,0);fill-rule:nonzero;"/>
                                </g>
                                <g id="t55" serif:id="t" transform="matrix(-0.951057,0.309017,0.309017,0.951057,0,-1)">
                                    <path d="M0,0L0,1L0.5,1L0,0Z" style="fill:rgb(255,204,0);fill-rule:nonzero;"/>
                                </g>
                            </g>
                        </g>
                        <g id="a11" serif:id="a" transform="matrix(-1,0,0,1,0,0)">
                            <g id="c28" serif:id="c" transform="matrix(0.309017,0.951057,-0.951057,0.309017,0,0)">
                                <g id="t56" serif:id="t" transform="matrix(0.951057,0.309017,-0.309017,0.951057,0,-1)">
                                    <path d="M0,0L0,1L0.5,1L0,0Z" style="fill:rgb(255,204,0);fill-rule:nonzero;"/>
                                </g>
                                <g id="t57" serif:id="t" transform="matrix(-0.951057,0.309017,0.309017,0.951057,0,-1)">
                                    <path d="M0,0L0,1L0.5,1L0,0Z" style="fill:rgb(255,204,0);fill-rule:nonzero;"/>
                                </g>
                            </g>
                            <g id="c29" serif:id="c" transform="matrix(-0.809017,0.587785,-0.587785,-0.809017,0,0)">
                                <g id="t58" serif:id="t" transform="matrix(0.951057,0.309017,-0.309017,0.951057,0,-1)">
                                    <path d="M0,0L0,1L0.5,1L0,0Z" style="fill:rgb(255,204,0);fill-rule:nonzero;"/>
                                </g>
                                <g id="t59" serif:id="t" transform="matrix(-0.951057,0.309017,0.309017,0.951057,0,-1)">
                                    <path d="M0,0L0,1L0.5,1L0,0Z" style="fill:rgb(255,204,0);fill-rule:nonzero;"/>
                                </g>
                            </g>
                        </g>
                    </g>
                    <g id="s6" serif:id="s" transform="matrix(0.309017,0.951057,-0.951057,0.309017,-3,5.19615)">
                        <g id="c30" serif:id="c">
                            <g id="t60" serif:id="t" transform="matrix(0.951057,0.309017,-0.309017,0.951057,0,-1)">
                                <path d="M0,0L0,1L0.5,1L0,0Z" style="fill:rgb(255,204,0);fill-rule:nonzero;"/>
                            </g>
                            <g id="t61" serif:id="t" transform="matrix(-0.951057,0.309017,0.309017,0.951057,0,-1)">
                                <path d="M0,0L0,1L0.5,1L0,0Z" style="fill:rgb(255,204,0);fill-rule:nonzero;"/>
                            </g>
                        </g>
                        <g id="a12" serif:id="a">
                            <g id="c31" serif:id="c" transform="matrix(0.309017,0.951057,-0.951057,0.309017,0,0)">
                                <g id="t62" serif:id="t" transform="matrix(0.951057,0.309017,-0.309017,0.951057,0,-1)">
                                    <path d="M0,0L0,1L0.5,1L0,0Z" style="fill:rgb(255,204,0);fill-rule:nonzero;"/>
                                </g>
                                <g id="t63" serif:id="t" transform="matrix(-0.951057,0.309017,0.309017,0.951057,0,-1)">
                                    <path d="M0,0L0,1L0.5,1L0,0Z" style="fill:rgb(255,204,0);fill-rule:nonzero;"/>
                                </g>
                            </g>
                            <g id="c32" serif:id="c" transform="matrix(-0.809017,0.587785,-0.587785,-0.809017,0,0)">
                                <g id="t64" serif:id="t" transform="matrix(0.951057,0.309017,-0.309017,0.951057,0,-1)">
                                    <path d="M0,0L0,1L0.5,1L0,0Z" style="fill:rgb(255,204,0);fill-rule:nonzero;"/>
                                </g>
                                <g id="t65" serif:id="t" transform="matrix(-0.951057,0.309017,0.309017,0.951057,0,-1)">
                                    <path d="M0,0L0,1L0.5,1L0,0Z" style="fill:rgb(255,204,0);fill-rule:nonzero;"/>
                                </g>
                            </g>
                        </g>
                        <g id="a13" serif:id="a" transform="matrix(-1,0,0,1,0,0)">
                            <g id="c33" serif:id="c" transform="matrix(0.309017,0.951057,-0.951057,0.309017,0,0)">
                                <g id="t66" serif:id="t" transform="matrix(0.951057,0.309017,-0.309017,0.951057,0,-1)">
                                    <path d="M0,0L0,1L0.5,1L0,0Z" style="fill:rgb(255,204,0);fill-rule:nonzero;"/>
                                </g>
                                <g id="t67" serif:id="t" transform="matrix(-0.951057,0.309017,0.309017,0.951057,0,-1)">
                                    <path d="M0,0L0,1L0.5,1L0,0Z" style="fill:rgb(255,204,0);fill-rule:nonzero;"/>
                                </g>
                            </g>
                            <g id="c34" serif:id="c" transform="matrix(-0.809017,0.587785,-0.587785,-0.809017,0,0)">
                                <g id="t68" serif:id="t" transform="matrix(0.951057,0.309017,-0.309017,0.951057,0,-1)">
                                    <path d="M0,0L0,1L0.5,1L0,0Z" style="fill:rgb(255,204,0);fill-rule:nonzero;"/>
                                </g>
                                <g id="t69" serif:id="t" transform="matrix(-0.951057,0.309017,0.309017,0.951057,0,-1)">
                                    <path d="M0,0L0,1L0.5,1L0,0Z" style="fill:rgb(255,204,0);fill-rule:nonzero;"/>
                                </g>
                            </g>
                        </g>
                    </g>
                </g>
                <g id="l1" serif:id="l" transform="matrix(-1,0,0,1,0,0)">
                    <g id="s7" serif:id="s" transform="matrix(1,0,0,1,-6,0)">
                        <g id="c35" serif:id="c">
                            <g id="t70" serif:id="t" transform="matrix(0.951057,0.309017,-0.309017,0.951057,0,-1)">
                                <path d="M0,0L0,1L0.5,1L0,0Z" style="fill:rgb(255,204,0);fill-rule:nonzero;"/>
                            </g>
                            <g id="t71" serif:id="t" transform="matrix(-0.951057,0.309017,0.309017,0.951057,0,-1)">
                                <path d="M0,0L0,1L0.5,1L0,0Z" style="fill:rgb(255,204,0);fill-rule:nonzero;"/>
                            </g>
                        </g>
                        <g id="a14" serif:id="a">
                            <g id="c36" serif:id="c" transform="matrix(0.309017,0.951057,-0.951057,0.309017,0,0)">
                                <g id="t72" serif:id="t" transform="matrix(0.951057,0.309017,-0.309017,0.951057,0,-1)">
                                    <path d="M0,0L0,1L0.5,1L0,0Z" style="fill:rgb(255,204,0);fill-rule:nonzero;"/>
                                </g>
                                <g id="t73" serif:id="t" transform="matrix(-0.951057,0.309017,0.309017,0.951057,0,-1)">
                                    <path d="M0,0L0,1L0.5,1L0,0Z" style="fill:rgb(255,204,0);fill-rule:nonzero;"/>
                                </g>
                            </g>
                            <g id="c37" serif:id="c" transform="matrix(-0.809017,0.587785,-0.587785,-0.809017,0,0)">
                                <g id="t74" serif:id="t" transform="matrix(0.951057,0.309017,-0.309017,0.951057,0,-1)">
                                    <path d="M0,0L0,1L0.5,1L0,0Z" style="fill:rgb(255,204,0);fill-rule:nonzero;"/>
                                </g>
                                <g id="t75" serif:id="t" transform="matrix(-0.951057,0.309017,0.309017,0.951057,0,-1)">
                                    <path d="M0,0L0,1L0.5,1L0,0Z" style="fill:rgb(255,204,0);fill-rule:nonzero;"/>
                                </g>
                            </g>
                        </g>
                        <g id="a15" serif:id="a" transform="matrix(-1,0,0,1,0,0)">
                            <g id="c38" serif:id="c" transform="matrix(0.309017,0.951057,-0.951057,0.309017,0,0)">
                                <g id="t76" serif:id="t" transform="matrix(0.951057,0.309017,-0.309017,0.951057,0,-1)">
                                    <path d="M0,0L0,1L0.5,1L0,0Z" style="fill:rgb(255,204,0);fill-rule:nonzero;"/>
                                </g>
                                <g id="t77" serif:id="t" transform="matrix(-0.951057,0.309017,0.309017,0.951057,0,-1)">
                                    <path d="M0,0L0,1L0.5,1L0,0Z" style="fill:rgb(255,204,0);fill-rule:nonzero;"/>
                                </g>
                            </g>
                            <g id="c39" serif:id="c" transform="matrix(-0.809017,0.587785,-0.587785,-0.809017,0,0)">
                                <g id="t78" serif:id="t" transform="matrix(0.951057,0.309017,-0.309017,0.951057,0,-1)">
                                    <path d="M0,0L0,1L0.5,1L0,0Z" style="fill:rgb(255,204,0);fill-rule:nonzero;"/>
                                </g>
                                <g id="t79" serif:id="t" transform="matrix(-0.951057,0.309017,0.309017,0.951057,0,-1)">
                                    <path d="M0,0L0,1L0.5,1L0,0Z" style="fill:rgb(255,204,0);fill-rule:nonzero;"/>
                                </g>
                            </g>
                        </g>
                    </g>
                    <g id="s8" serif:id="s" transform="matrix(-0.809017,-0.587785,0.587785,-0.809017,-3,-5.19615)">
                        <g id="c40" serif:id="c">
                            <g id="t80" serif:id="t" transform="matrix(0.951057,0.309017,-0.309017,0.951057,0,-1)">
                                <path d="M0,0L0,1L0.5,1L0,0Z" style="fill:rgb(255,204,0);fill-rule:nonzero;"/>
                            </g>
                            <g id="t81" serif:id="t" transform="matrix(-0.951057,0.309017,0.309017,0.951057,0,-1)">
                                <path d="M0,0L0,1L0.5,1L0,0Z" style="fill:rgb(255,204,0);fill-rule:nonzero;"/>
                            </g>
                        </g>
                        <g id="a16" serif:id="a">
                            <g id="c41" serif:id="c" transform="matrix(0.309017,0.951057,-0.951057,0.309017,0,0)">
                                <g id="t82" serif:id="t" transform="matrix(0.951057,0.309017,-0.309017,0.951057,0,-1)">
                                    <path d="M0,0L0,1L0.5,1L0,0Z" style="fill:rgb(255,204,0);fill-rule:nonzero;"/>
                                </g>
                                <g id="t83" serif:id="t" transform="matrix(-0.951057,0.309017,0.309017,0.951057,0,-1)">
                                    <path d="M0,0L0,1L0.5,1L0,0Z" style="fill:rgb(255,204,0);fill-rule:nonzero;"/>
                                </g>
                            </g>
                            <g id="c42" serif:id="c" transform="matrix(-0.809017,0.587785,-0.587785,-0.809017,0,0)">
                                <g id="t84" serif:id="t" transform="matrix(0.951057,0.309017,-0.309017,0.951057,0,-1)">
                                    <path d="M0,0L0,1L0.5,1L0,0Z" style="fill:rgb(255,204,0);fill-rule:nonzero;"/>
                                </g>
                                <g id="t85" serif:id="t" transform="matrix(-0.951057,0.309017,0.309017,0.951057,0,-1)">
                                    <path d="M0,0L0,1L0.5,1L0,0Z" style="fill:rgb(255,204,0);fill-rule:nonzero;"/>
                                </g>
                            </g>
                        </g>
                        <g id="a17" serif:id="a" transform="matrix(-1,0,0,1,0,0)">
                            <g id="c43" serif:id="c" transform="matrix(0.309017,0.951057,-0.951057,0.309017,0,0)">
                                <g id="t86" serif:id="t" transform="matrix(0.951057,0.309017,-0.309017,0.951057,0,-1)">
                                    <path d="M0,0L0,1L0.5,1L0,0Z" style="fill:rgb(255,204,0);fill-rule:nonzero;"/>
                                </g>
                                <g id="t87" serif:id="t" transform="matrix(-0.951057,0.309017,0.309017,0.951057,0,-1)">
                                    <path d="M0,0L0,1L0.5,1L0,0Z" style="fill:rgb(255,204,0);fill-rule:nonzero;"/>
                                </g>
                            </g>
                            <g id="c44" serif:id="c" transform="matrix(-0.809017,0.587785,-0.587785,-0.809017,0,0)">
                                <g id="t88" serif:id="t" transform="matrix(0.951057,0.309017,-0.309017,0.951057,0,-1)">
                                    <path d="M0,0L0,1L0.5,1L0,0Z" style="fill:rgb(255,204,0);fill-rule:nonzero;"/>
                                </g>
                                <g id="t89" serif:id="t" transform="matrix(-0.951057,0.309017,0.309017,0.951057,0,-1)">
                                    <path d="M0,0L0,1L0.5,1L0,0Z" style="fill:rgb(255,204,0);fill-rule:nonzero;"/>
                                </g>
                            </g>
                        </g>
                    </g>
                    <g id="s9" serif:id="s" transform="matrix(-0.809017,0.587785,-0.587785,-0.809017,-5.19615,-3)">
                        <g id="c45" serif:id="c">
                            <g id="t90" serif:id="t" transform="matrix(0.951057,0.309017,-0.309017,0.951057,0,-1)">
                                <path d="M0,0L0,1L0.5,1L0,0Z" style="fill:rgb(255,204,0);fill-rule:nonzero;"/>
                            </g>
                            <g id="t91" serif:id="t" transform="matrix(-0.951057,0.309017,0.309017,0.951057,0,-1)">
                                <path d="M0,0L0,1L0.5,1L0,0Z" style="fill:rgb(255,204,0);fill-rule:nonzero;"/>
                            </g>
                        </g>
                        <g id="a18" serif:id="a">
                            <g id="c46" serif:id="c" transform="matrix(0.309017,0.951057,-0.951057,0.309017,0,0)">
                                <g id="t92" serif:id="t" transform="matrix(0.951057,0.309017,-0.309017,0.951057,0,-1)">
                                    <path d="M0,0L0,1L0.5,1L0,0Z" style="fill:rgb(255,204,0);fill-rule:nonzero;"/>
                                </g>
                                <g id="t93" serif:id="t" transform="matrix(-0.951057,0.309017,0.309017,0.951057,0,-1)">
                                    <path d="M0,0L0,1L0.5,1L0,0Z" style="fill:rgb(255,204,0);fill-rule:nonzero;"/>
                                </g>
                            </g>
                            <g id="c47" serif:id="c" transform="matrix(-0.809017,0.587785,-0.587785,-0.809017,0,0)">
                                <g id="t94" serif:id="t" transform="matrix(0.951057,0.309017,-0.309017,0.951057,0,-1)">
                                    <path d="M0,0L0,1L0.5,1L0,0Z" style="fill:rgb(255,204,0);fill-rule:nonzero;"/>
                                </g>
                                <g id="t95" serif:id="t" transform="matrix(-0.951057,0.309017,0.309017,0.951057,0,-1)">
                                    <path d="M0,0L0,1L0.5,1L0,0Z" style="fill:rgb(255,204,0);fill-rule:nonzero;"/>
                                </g>
                            </g>
                        </g>
                        <g id="a19" serif:id="a" transform="matrix(-1,0,0,1,0,0)">
                            <g id="c48" serif:id="c" transform="matrix(0.309017,0.951057,-0.951057,0.309017,0,0)">
                                <g id="t96" serif:id="t" transform="matrix(0.951057,0.309017,-0.309017,0.951057,0,-1)">
                                    <path d="M0,0L0,1L0.5,1L0,0Z" style="fill:rgb(255,204,0);fill-rule:nonzero;"/>
                                </g>
                                <g id="t97" serif:id="t" transform="matrix(-0.951057,0.309017,0.309017,0.951057,0,-1)">
                                    <path d="M0,0L0,1L0.5,1L0,0Z" style="fill:rgb(255,204,0);fill-rule:nonzero;"/>
                                </g>
                            </g>
                            <g id="c49" serif:id="c" transform="matrix(-0.809017,0.587785,-0.587785,-0.809017,0,0)">
                                <g id="t98" serif:id="t" transform="matrix(0.951057,0.309017,-0.309017,0.951057,0,-1)">
                                    <path d="M0,0L0,1L0.5,1L0,0Z" style="fill:rgb(255,204,0);fill-rule:nonzero;"/>
                                </g>
                                <g id="t99" serif:id="t" transform="matrix(-0.951057,0.309017,0.309017,0.951057,0,-1)">
                                    <path d="M0,0L0,1L0.5,1L0,0Z" style="fill:rgb(255,204,0);fill-rule:nonzero;"/>
                                </g>
                            </g>
                        </g>
                    </g>
                    <g id="s10" serif:id="s" transform="matrix(0.309017,0.951057,-0.951057,0.309017,-5.19615,3)">
                        <g id="c50" serif:id="c">
                            <g id="t100" serif:id="t" transform="matrix(0.951057,0.309017,-0.309017,0.951057,0,-1)">
                                <path d="M0,0L0,1L0.5,1L0,0Z" style="fill:rgb(255,204,0);fill-rule:nonzero;"/>
                            </g>
                            <g id="t101" serif:id="t" transform="matrix(-0.951057,0.309017,0.309017,0.951057,0,-1)">
                                <path d="M0,0L0,1L0.5,1L0,0Z" style="fill:rgb(255,204,0);fill-rule:nonzero;"/>
                            </g>
                        </g>
                        <g id="a20" serif:id="a">
                            <g id="c51" serif:id="c" transform="matrix(0.309017,0.951057,-0.951057,0.309017,0,0)">
                                <g id="t102" serif:id="t" transform="matrix(0.951057,0.309017,-0.309017,0.951057,0,-1)">
                                    <path d="M0,0L0,1L0.5,1L0,0Z" style="fill:rgb(255,204,0);fill-rule:nonzero;"/>
                                </g>
                                <g id="t103" serif:id="t" transform="matrix(-0.951057,0.309017,0.309017,0.951057,0,-1)">
                                    <path d="M0,0L0,1L0.5,1L0,0Z" style="fill:rgb(255,204,0);fill-rule:nonzero;"/>
                                </g>
                            </g>
                            <g id="c52" serif:id="c" transform="matrix(-0.809017,0.587785,-0.587785,-0.809017,0,0)">
                                <g id="t104" serif:id="t" transform="matrix(0.951057,0.309017,-0.309017,0.951057,0,-1)">
                                    <path d="M0,0L0,1L0.5,1L0,0Z" style="fill:rgb(255,204,0);fill-rule:nonzero;"/>
                                </g>
                                <g id="t105" serif:id="t" transform="matrix(-0.951057,0.309017,0.309017,0.951057,0,-1)">
                                    <path d="M0,0L0,1L0.5,1L0,0Z" style="fill:rgb(255,204,0);fill-rule:nonzero;"/>
                                </g>
                            </g>
                        </g>
                        <g id="a21" serif:id="a" transform="matrix(-1,0,0,1,0,0)">
                            <g id="c53" serif:id="c" transform="matrix(0.309017,0.951057,-0.951057,0.309017,0,0)">
                                <g id="t106" serif:id="t" transform="matrix(0.951057,0.309017,-0.309017,0.951057,0,-1)">
                                    <path d="M0,0L0,1L0.5,1L0,0Z" style="fill:rgb(255,204,0);fill-rule:nonzero;"/>
                                </g>
                                <g id="t107" serif:id="t" transform="matrix(-0.951057,0.309017,0.309017,0.951057,0,-1)">
                                    <path d="M0,0L0,1L0.5,1L0,0Z" style="fill:rgb(255,204,0);fill-rule:nonzero;"/>
                                </g>
                            </g>
                            <g id="c54" serif:id="c" transform="matrix(-0.809017,0.587785,-0.587785,-0.809017,0,0)">
                                <g id="t108" serif:id="t" transform="matrix(0.951057,0.309017,-0.309017,0.951057,0,-1)">
                                    <path d="M0,0L0,1L0.5,1L0,0Z" style="fill:rgb(255,204,0);fill-rule:nonzero;"/>
                                </g>
                                <g id="t109" serif:id="t" transform="matrix(-0.951057,0.309017,0.309017,0.951057,0,-1)">
                                    <path d="M0,0L0,1L0.5,1L0,0Z" style="fill:rgb(255,204,0);fill-rule:nonzero;"/>
                                </g>
                            </g>
                        </g>
                    </g>
                    <g id="s11" serif:id="s" transform="matrix(0.309017,0.951057,-0.951057,0.309017,-3,5.19615)">
                        <g id="c55" serif:id="c">
                            <g id="t110" serif:id="t" transform="matrix(0.951057,0.309017,-0.309017,0.951057,0,-1)">
                                <path d="M0,0L0,1L0.5,1L0,0Z" style="fill:rgb(255,204,0);fill-rule:nonzero;"/>
                            </g>
                            <g id="t111" serif:id="t" transform="matrix(-0.951057,0.309017,0.309017,0.951057,0,-1)">
                                <path d="M0,0L0,1L0.5,1L0,0Z" style="fill:rgb(255,204,0);fill-rule:nonzero;"/>
                            </g>
                        </g>
                        <g id="a22" serif:id="a">
                            <g id="c56" serif:id="c" transform="matrix(0.309017,0.951057,-0.951057,0.309017,0,0)">
                                <g id="t112" serif:id="t" transform="matrix(0.951057,0.309017,-0.309017,0.951057,0,-1)">
                                    <path d="M0,0L0,1L0.5,1L0,0Z" style="fill:rgb(255,204,0);fill-rule:nonzero;"/>
                                </g>
                                <g id="t113" serif:id="t" transform="matrix(-0.951057,0.309017,0.309017,0.951057,0,-1)">
                                    <path d="M0,0L0,1L0.5,1L0,0Z" style="fill:rgb(255,204,0);fill-rule:nonzero;"/>
                                </g>
                            </g>
                            <g id="c57" serif:id="c" transform="matrix(-0.809017,0.587785,-0.587785,-0.809017,0,0)">
                                <g id="t114" serif:id="t" transform="matrix(0.951057,0.309017,-0.309017,0.951057,0,-1)">
                                    <path d="M0,0L0,1L0.5,1L0,0Z" style="fill:rgb(255,204,0);fill-rule:nonzero;"/>
                                </g>
                                <g id="t115" serif:id="t" transform="matrix(-0.951057,0.309017,0.309017,0.951057,0,-1)">
                                    <path d="M0,0L0,1L0.5,1L0,0Z" style="fill:rgb(255,204,0);fill-rule:nonzero;"/>
                                </g>
                            </g>
                        </g>
                        <g id="a23" serif:id="a" transform="matrix(-1,0,0,1,0,0)">
                            <g id="c58" serif:id="c" transform="matrix(0.309017,0.951057,-0.951057,0.309017,0,0)">
                                <g id="t116" serif:id="t" transform="matrix(0.951057,0.309017,-0.309017,0.951057,0,-1)">
                                    <path d="M0,0L0,1L0.5,1L0,0Z" style="fill:rgb(255,204,0);fill-rule:nonzero;"/>
                                </g>
                                <g id="t117" serif:id="t" transform="matrix(-0.951057,0.309017,0.309017,0.951057,0,-1)">
                                    <path d="M0,0L0,1L0.5,1L0,0Z" style="fill:rgb(255,204,0);fill-rule:nonzero;"/>
                                </g>
                            </g>
                            <g id="c59" serif:id="c" transform="matrix(-0.809017,0.587785,-0.587785,-0.809017,0,0)">
                                <g id="t118" serif:id="t" transform="matrix(0.951057,0.309017,-0.309017,0.951057,0,-1)">
                                    <path d="M0,0L0,1L0.5,1L0,0Z" style="fill:rgb(255,204,0);fill-rule:nonzero;"/>
                                </g>
                                <g id="t119" serif:id="t" transform="matrix(-0.951057,0.309017,0.309017,0.951057,0,-1)">
                                    <path d="M0,0L0,1L0.5,1L0,0Z" style="fill:rgb(255,204,0);fill-rule:nonzero;"/>
                                </g>
                            </g>
                        </g>
                    </g>
                </g>
            </g>
        </g>
    </g>
</svg>
