<?xml version="1.0" encoding="UTF-8" standalone="no"?>
<!DOCTYPE svg PUBLIC "-//W3C//DTD SVG 1.1//EN" "http://www.w3.org/Graphics/SVG/1.1/DTD/svg11.dtd">
<svg width="100%" height="100%" viewBox="0 0 521 260" version="1.1" xmlns="http://www.w3.org/2000/svg" xmlns:xlink="http://www.w3.org/1999/xlink" xml:space="preserve" xmlns:serif="http://www.serif.com/" style="fill-rule:evenodd;clip-rule:evenodd;stroke-linejoin:round;stroke-miterlimit:2;">
    <g transform="matrix(1,0,0,1,-110,-100)">
        <g transform="matrix(1.73333,0,0,1.73333,67.6698,87.6709)">
            <g transform="matrix(0.242915,0,0,0.230769,24.4211,7.113)">
                <rect x="0" y="0" width="1235" height="650" style="fill:rgb(178,34,52);"/>
            </g>
            <g transform="matrix(0.576923,0,0,0.576923,-39.0403,-50.5794)">
                <g transform="matrix(0.981132,0,0,1,11.8869,-160)">
                    <rect x="100" y="440" width="530" height="20" style="fill:white;"/>
                </g>
                <g transform="matrix(0.981132,0,0,1,11.8869,-200)">
                    <rect x="100" y="440" width="530" height="20" style="fill:white;"/>
                </g>
                <g transform="matrix(0.981132,0,0,1,11.8869,-240)">
                    <rect x="100" y="440" width="530" height="20" style="fill:white;"/>
                </g>
                <g transform="matrix(0.981132,0,0,1,11.8869,-280)">
                    <rect x="100" y="440" width="530" height="20" style="fill:white;"/>
                </g>
                <g transform="matrix(0.981132,0,0,1,11.8869,-320)">
                    <rect x="100" y="440" width="530" height="20" style="fill:white;"/>
                </g>
                <g transform="matrix(0.981132,0,0,1,11.8869,-120)">
                    <rect x="100" y="440" width="530" height="20" style="fill:white;"/>
                </g>
            </g>
            <g transform="matrix(0.230769,0,0,0.230769,24.4211,7.113)">
                <rect x="0" y="0" width="494" height="350" style="fill:rgb(60,59,110);"/>
            </g>
            <g>
                <g id="s" transform="matrix(0.230769,0,0,0.230769,24.4211,7.113)">
                    <path d="M41.167,15L52.922,51.18L22.146,28.82L60.188,28.82L29.411,51.18L41.167,15Z" style="fill:white;fill-rule:nonzero;"/>
                </g>
                <g id="s1" serif:id="s" transform="matrix(0.230769,0,0,0.230769,24.4211,23.2668)">
                    <path d="M41.167,15L52.922,51.18L22.146,28.82L60.188,28.82L29.411,51.18L41.167,15Z" style="fill:white;fill-rule:nonzero;"/>
                </g>
                <g id="s2" serif:id="s" transform="matrix(0.230769,0,0,0.230769,24.4211,39.4207)">
                    <path d="M41.167,15L52.922,51.18L22.146,28.82L60.188,28.82L29.411,51.18L41.167,15Z" style="fill:white;fill-rule:nonzero;"/>
                </g>
                <g id="s3" serif:id="s" transform="matrix(0.230769,0,0,0.230769,24.4211,55.5745)">
                    <path d="M41.167,15L52.922,51.18L22.146,28.82L60.188,28.82L29.411,51.18L41.167,15Z" style="fill:white;fill-rule:nonzero;"/>
                </g>
                <g id="s4" serif:id="s" transform="matrix(0.230769,0,0,0.230769,24.4211,71.7283)">
                    <path d="M41.167,15L52.922,51.18L22.146,28.82L60.188,28.82L29.411,51.18L41.167,15Z" style="fill:white;fill-rule:nonzero;"/>
                </g>
                <g id="s5" serif:id="s" transform="matrix(0.230769,0,0,0.230769,33.9211,15.1899)">
                    <path d="M41.167,15L52.922,51.18L22.146,28.82L60.188,28.82L29.411,51.18L41.167,15Z" style="fill:white;fill-rule:nonzero;"/>
                </g>
                <g id="s6" serif:id="s" transform="matrix(0.230769,0,0,0.230769,33.9211,31.3437)">
                    <path d="M41.167,15L52.922,51.18L22.146,28.82L60.188,28.82L29.411,51.18L41.167,15Z" style="fill:white;fill-rule:nonzero;"/>
                </g>
                <g id="s7" serif:id="s" transform="matrix(0.230769,0,0,0.230769,33.9211,47.4976)">
                    <path d="M41.167,15L52.922,51.18L22.146,28.82L60.188,28.82L29.411,51.18L41.167,15Z" style="fill:white;fill-rule:nonzero;"/>
                </g>
                <g id="s8" serif:id="s" transform="matrix(0.230769,0,0,0.230769,33.9211,63.6514)">
                    <path d="M41.167,15L52.922,51.18L22.146,28.82L60.188,28.82L29.411,51.18L41.167,15Z" style="fill:white;fill-rule:nonzero;"/>
                </g>
                <g id="s9" serif:id="s" transform="matrix(0.230769,0,0,0.230769,43.4211,7.113)">
                    <path d="M41.167,15L52.922,51.18L22.146,28.82L60.188,28.82L29.411,51.18L41.167,15Z" style="fill:white;fill-rule:nonzero;"/>
                </g>
                <g id="s10" serif:id="s" transform="matrix(0.230769,0,0,0.230769,43.4211,23.2668)">
                    <path d="M41.167,15L52.922,51.18L22.146,28.82L60.188,28.82L29.411,51.18L41.167,15Z" style="fill:white;fill-rule:nonzero;"/>
                </g>
                <g id="s11" serif:id="s" transform="matrix(0.230769,0,0,0.230769,43.4211,39.4207)">
                    <path d="M41.167,15L52.922,51.18L22.146,28.82L60.188,28.82L29.411,51.18L41.167,15Z" style="fill:white;fill-rule:nonzero;"/>
                </g>
                <g id="s12" serif:id="s" transform="matrix(0.230769,0,0,0.230769,43.4211,55.5745)">
                    <path d="M41.167,15L52.922,51.18L22.146,28.82L60.188,28.82L29.411,51.18L41.167,15Z" style="fill:white;fill-rule:nonzero;"/>
                </g>
                <g id="s13" serif:id="s" transform="matrix(0.230769,0,0,0.230769,43.4211,71.7283)">
                    <path d="M41.167,15L52.922,51.18L22.146,28.82L60.188,28.82L29.411,51.18L41.167,15Z" style="fill:white;fill-rule:nonzero;"/>
                </g>
                <g id="s14" serif:id="s" transform="matrix(0.230769,0,0,0.230769,52.9211,15.1899)">
                    <path d="M41.167,15L52.922,51.18L22.146,28.82L60.188,28.82L29.411,51.18L41.167,15Z" style="fill:white;fill-rule:nonzero;"/>
                </g>
                <g id="s15" serif:id="s" transform="matrix(0.230769,0,0,0.230769,52.9211,31.3437)">
                    <path d="M41.167,15L52.922,51.18L22.146,28.82L60.188,28.82L29.411,51.18L41.167,15Z" style="fill:white;fill-rule:nonzero;"/>
                </g>
                <g id="s16" serif:id="s" transform="matrix(0.230769,0,0,0.230769,52.9211,47.4976)">
                    <path d="M41.167,15L52.922,51.18L22.146,28.82L60.188,28.82L29.411,51.18L41.167,15Z" style="fill:white;fill-rule:nonzero;"/>
                </g>
                <g id="s17" serif:id="s" transform="matrix(0.230769,0,0,0.230769,52.9211,63.6514)">
                    <path d="M41.167,15L52.922,51.18L22.146,28.82L60.188,28.82L29.411,51.18L41.167,15Z" style="fill:white;fill-rule:nonzero;"/>
                </g>
                <g id="s18" serif:id="s" transform="matrix(0.230769,0,0,0.230769,62.4211,7.113)">
                    <path d="M41.167,15L52.922,51.18L22.146,28.82L60.188,28.82L29.411,51.18L41.167,15Z" style="fill:white;fill-rule:nonzero;"/>
                </g>
                <g id="s19" serif:id="s" transform="matrix(0.230769,0,0,0.230769,62.4211,23.2668)">
                    <path d="M41.167,15L52.922,51.18L22.146,28.82L60.188,28.82L29.411,51.18L41.167,15Z" style="fill:white;fill-rule:nonzero;"/>
                </g>
                <g id="s20" serif:id="s" transform="matrix(0.230769,0,0,0.230769,62.4211,39.4207)">
                    <path d="M41.167,15L52.922,51.18L22.146,28.82L60.188,28.82L29.411,51.18L41.167,15Z" style="fill:white;fill-rule:nonzero;"/>
                </g>
                <g id="s21" serif:id="s" transform="matrix(0.230769,0,0,0.230769,62.4211,55.5745)">
                    <path d="M41.167,15L52.922,51.18L22.146,28.82L60.188,28.82L29.411,51.18L41.167,15Z" style="fill:white;fill-rule:nonzero;"/>
                </g>
                <g id="s22" serif:id="s" transform="matrix(0.230769,0,0,0.230769,62.4211,71.7283)">
                    <path d="M41.167,15L52.922,51.18L22.146,28.82L60.188,28.82L29.411,51.18L41.167,15Z" style="fill:white;fill-rule:nonzero;"/>
                </g>
                <g id="s23" serif:id="s" transform="matrix(0.230769,0,0,0.230769,71.9211,15.1899)">
                    <path d="M41.167,15L52.922,51.18L22.146,28.82L60.188,28.82L29.411,51.18L41.167,15Z" style="fill:white;fill-rule:nonzero;"/>
                </g>
                <g id="s24" serif:id="s" transform="matrix(0.230769,0,0,0.230769,71.9211,31.3437)">
                    <path d="M41.167,15L52.922,51.18L22.146,28.82L60.188,28.82L29.411,51.18L41.167,15Z" style="fill:white;fill-rule:nonzero;"/>
                </g>
                <g id="s25" serif:id="s" transform="matrix(0.230769,0,0,0.230769,71.9211,47.4976)">
                    <path d="M41.167,15L52.922,51.18L22.146,28.82L60.188,28.82L29.411,51.18L41.167,15Z" style="fill:white;fill-rule:nonzero;"/>
                </g>
                <g id="s26" serif:id="s" transform="matrix(0.230769,0,0,0.230769,71.9211,63.6514)">
                    <path d="M41.167,15L52.922,51.18L22.146,28.82L60.188,28.82L29.411,51.18L41.167,15Z" style="fill:white;fill-rule:nonzero;"/>
                </g>
                <g id="s27" serif:id="s" transform="matrix(0.230769,0,0,0.230769,81.4211,7.113)">
                    <path d="M41.167,15L52.922,51.18L22.146,28.82L60.188,28.82L29.411,51.18L41.167,15Z" style="fill:white;fill-rule:nonzero;"/>
                </g>
                <g id="s28" serif:id="s" transform="matrix(0.230769,0,0,0.230769,81.4211,23.2668)">
                    <path d="M41.167,15L52.922,51.18L22.146,28.82L60.188,28.82L29.411,51.18L41.167,15Z" style="fill:white;fill-rule:nonzero;"/>
                </g>
                <g id="s29" serif:id="s" transform="matrix(0.230769,0,0,0.230769,81.4211,39.4207)">
                    <path d="M41.167,15L52.922,51.18L22.146,28.82L60.188,28.82L29.411,51.18L41.167,15Z" style="fill:white;fill-rule:nonzero;"/>
                </g>
                <g id="s30" serif:id="s" transform="matrix(0.230769,0,0,0.230769,81.4211,55.5745)">
                    <path d="M41.167,15L52.922,51.18L22.146,28.82L60.188,28.82L29.411,51.18L41.167,15Z" style="fill:white;fill-rule:nonzero;"/>
                </g>
                <g id="s31" serif:id="s" transform="matrix(0.230769,0,0,0.230769,81.4211,71.7283)">
                    <path d="M41.167,15L52.922,51.18L22.146,28.82L60.188,28.82L29.411,51.18L41.167,15Z" style="fill:white;fill-rule:nonzero;"/>
                </g>
                <g id="s32" serif:id="s" transform="matrix(0.230769,0,0,0.230769,90.9211,15.1899)">
                    <path d="M41.167,15L52.922,51.18L22.146,28.82L60.188,28.82L29.411,51.18L41.167,15Z" style="fill:white;fill-rule:nonzero;"/>
                </g>
                <g id="s33" serif:id="s" transform="matrix(0.230769,0,0,0.230769,90.9211,31.3437)">
                    <path d="M41.167,15L52.922,51.18L22.146,28.82L60.188,28.82L29.411,51.18L41.167,15Z" style="fill:white;fill-rule:nonzero;"/>
                </g>
                <g id="s34" serif:id="s" transform="matrix(0.230769,0,0,0.230769,90.9211,47.4976)">
                    <path d="M41.167,15L52.922,51.18L22.146,28.82L60.188,28.82L29.411,51.18L41.167,15Z" style="fill:white;fill-rule:nonzero;"/>
                </g>
                <g id="s35" serif:id="s" transform="matrix(0.230769,0,0,0.230769,90.9211,63.6514)">
                    <path d="M41.167,15L52.922,51.18L22.146,28.82L60.188,28.82L29.411,51.18L41.167,15Z" style="fill:white;fill-rule:nonzero;"/>
                </g>
                <g id="s36" serif:id="s" transform="matrix(0.230769,0,0,0.230769,100.421,7.113)">
                    <path d="M41.167,15L52.922,51.18L22.146,28.82L60.188,28.82L29.411,51.18L41.167,15Z" style="fill:white;fill-rule:nonzero;"/>
                </g>
                <g id="s37" serif:id="s" transform="matrix(0.230769,0,0,0.230769,100.421,23.2668)">
                    <path d="M41.167,15L52.922,51.18L22.146,28.82L60.188,28.82L29.411,51.18L41.167,15Z" style="fill:white;fill-rule:nonzero;"/>
                </g>
                <g id="s38" serif:id="s" transform="matrix(0.230769,0,0,0.230769,100.421,39.4207)">
                    <path d="M41.167,15L52.922,51.18L22.146,28.82L60.188,28.82L29.411,51.18L41.167,15Z" style="fill:white;fill-rule:nonzero;"/>
                </g>
                <g id="s39" serif:id="s" transform="matrix(0.230769,0,0,0.230769,100.421,55.5745)">
                    <path d="M41.167,15L52.922,51.18L22.146,28.82L60.188,28.82L29.411,51.18L41.167,15Z" style="fill:white;fill-rule:nonzero;"/>
                </g>
                <g id="s40" serif:id="s" transform="matrix(0.230769,0,0,0.230769,100.421,71.7283)">
                    <path d="M41.167,15L52.922,51.18L22.146,28.82L60.188,28.82L29.411,51.18L41.167,15Z" style="fill:white;fill-rule:nonzero;"/>
                </g>
                <g id="s41" serif:id="s" transform="matrix(0.230769,0,0,0.230769,109.921,15.1899)">
                    <path d="M41.167,15L52.922,51.18L22.146,28.82L60.188,28.82L29.411,51.18L41.167,15Z" style="fill:white;fill-rule:nonzero;"/>
                </g>
                <g id="s42" serif:id="s" transform="matrix(0.230769,0,0,0.230769,109.921,31.3437)">
                    <path d="M41.167,15L52.922,51.18L22.146,28.82L60.188,28.82L29.411,51.18L41.167,15Z" style="fill:white;fill-rule:nonzero;"/>
                </g>
                <g id="s43" serif:id="s" transform="matrix(0.230769,0,0,0.230769,109.921,47.4976)">
                    <path d="M41.167,15L52.922,51.18L22.146,28.82L60.188,28.82L29.411,51.18L41.167,15Z" style="fill:white;fill-rule:nonzero;"/>
                </g>
                <g id="s44" serif:id="s" transform="matrix(0.230769,0,0,0.230769,109.921,63.6514)">
                    <path d="M41.167,15L52.922,51.18L22.146,28.82L60.188,28.82L29.411,51.18L41.167,15Z" style="fill:white;fill-rule:nonzero;"/>
                </g>
                <g id="s45" serif:id="s" transform="matrix(0.230769,0,0,0.230769,119.421,7.113)">
                    <path d="M41.167,15L52.922,51.18L22.146,28.82L60.188,28.82L29.411,51.18L41.167,15Z" style="fill:white;fill-rule:nonzero;"/>
                </g>
                <g id="s46" serif:id="s" transform="matrix(0.230769,0,0,0.230769,119.421,23.2668)">
                    <path d="M41.167,15L52.922,51.18L22.146,28.82L60.188,28.82L29.411,51.18L41.167,15Z" style="fill:white;fill-rule:nonzero;"/>
                </g>
                <g id="s47" serif:id="s" transform="matrix(0.230769,0,0,0.230769,119.421,39.4207)">
                    <path d="M41.167,15L52.922,51.18L22.146,28.82L60.188,28.82L29.411,51.18L41.167,15Z" style="fill:white;fill-rule:nonzero;"/>
                </g>
                <g id="s48" serif:id="s" transform="matrix(0.230769,0,0,0.230769,119.421,55.5745)">
                    <path d="M41.167,15L52.922,51.18L22.146,28.82L60.188,28.82L29.411,51.18L41.167,15Z" style="fill:white;fill-rule:nonzero;"/>
                </g>
                <g id="s49" serif:id="s" transform="matrix(0.230769,0,0,0.230769,119.421,71.7283)">
                    <path d="M41.167,15L52.922,51.18L22.146,28.82L60.188,28.82L29.411,51.18L41.167,15Z" style="fill:white;fill-rule:nonzero;"/>
                </g>
            </g>
        </g>
    </g>
</svg>
