<?xml version="1.0" encoding="UTF-8" standalone="no"?>
<!DOCTYPE svg PUBLIC "-//W3C//DTD SVG 1.1//EN" "http://www.w3.org/Graphics/SVG/1.1/DTD/svg11.dtd">
<svg width="100%" height="100%" viewBox="0 0 1521 683" version="1.1" xmlns="http://www.w3.org/2000/svg" xmlns:xlink="http://www.w3.org/1999/xlink" xml:space="preserve" xmlns:serif="http://www.serif.com/" style="fill-rule:evenodd;clip-rule:evenodd;stroke-linejoin:round;stroke-miterlimit:2;">
    <g transform="matrix(1,0,0,1,-79.9674,-53.1483)">
        <g transform="matrix(4.16667,0,0,4.16667,211.374,331.6)">
            <path d="M0,-4.42C-16.449,2.58 -23.897,11.319 -27.075,16.439C-28.323,13.57 -29.285,10.543 -29.923,7.391C-23.597,2.507 -11.232,-5.178 -1.122,-8.895C-1.122,-8.895 -0.622,-6.849 0,-4.42M2.447,4.647C-11.542,10.871 -20.104,19.001 -23.012,23.816C-24.463,21.68 -25.738,19.413 -26.814,17.032C-20.943,11.864 -9.492,4.048 1.18,0.086C1.18,0.086 1.998,3.067 2.447,4.647M4.999,13.132C-8.695,19.09 -14.226,26.207 -17.211,30.754C-19.204,28.8 -21.02,26.662 -22.63,24.365C-16.962,19.335 -6.712,12.747 3.701,8.936C3.701,8.936 4.296,10.926 4.999,13.132M-3.142,-17.585C-2.8,-16.047 -2.46,-14.555 -2.122,-13.104C-17.13,-6.563 -26.443,1.927 -30.06,6.686C-30.423,4.734 -30.666,2.737 -30.773,0.7C-30.821,-0.218 -30.835,-1.129 -30.828,-2.036C-24.451,-6.483 -11.805,-14.457 -3.142,-17.585M-6.608,-34.734C-6.354,-33.349 -6.104,-31.916 -5.82,-30.447C-17.415,-25.168 -24.874,-18.388 -28.88,-14.885C-27.712,-18.726 -26.047,-22.358 -23.956,-25.706C-18.729,-28.53 -8.993,-33.793 -6.608,-34.734M-4.979,-26.261C-4.687,-24.825 -4.391,-23.353 -4.07,-21.848C-19.579,-15.311 -26.77,-7.352 -30.819,-2.84C-30.726,-6.639 -30.163,-10.331 -29.182,-13.859C-23.114,-17.338 -11.083,-24.08 -4.979,-26.261M-7.753,-41.239C-7.569,-40.141 -7.39,-38.997 -7.185,-37.829C-14.254,-34.039 -19.53,-29.562 -23.03,-27.128C-19.113,-32.908 -13.881,-37.768 -7.753,-41.239M8.075,22.059C-3.906,28.245 -9.534,36.819 -9.534,36.819C-12.133,35.186 -14.556,33.295 -16.771,31.182C-11.319,26.742 -2.546,20.942 6.457,17.548C6.457,17.548 7.463,20.444 8.075,22.059" style="fill:white;fill-rule:nonzero;"/>
        </g>
        <g transform="matrix(4.16667,0,0,4.16667,310.808,484.381)">
            <path d="M0,-6.737C-11.024,-4.641 -18.587,-0.246 -24.51,4.452C-21.306,5.588 -17.942,6.372 -14.468,6.76C-10.611,2.32 -4.985,-1.329 3.293,-3.598C14.15,-6.574 22.618,-6.903 22.618,-6.903C22.618,-6.903 13.928,-9.384 0,-6.737M-13.625,6.926C-11.925,7.027 -8.701,7.071 -6.96,6.978C-0.197,6.617 6.133,4.781 11.751,1.811C13.304,0.99 14.806,0.087 16.243,-0.901C4.969,-1.133 -6.804,1.133 -13.625,6.926M7.386,-12.651C7.386,-12.651 -5.078,-13.808 -18.12,-8.625C-26.351,-5.354 -32.776,0.535 -32.776,0.535C-30.37,1.989 -27.822,3.224 -25.158,4.215C-17.01,-5.119 -5.413,-10.157 7.386,-12.651" style="fill:white;fill-rule:nonzero;"/>
        </g>
        <g transform="matrix(4.16667,0,0,4.16667,278.026,196.417)">
            <path d="M0,22.683C-6.099,24.25 -11.393,26.069 -15.986,28.024C-16.608,25.595 -17.246,23.006 -17.892,20.26C-15.893,19.537 -11.949,18.295 -9.602,17.93C-9.088,17.85 -8.588,18.12 -8.437,18.618C-8.29,19.104 -8.028,19.872 -7.843,20.48C-5.705,19.844 -3.516,19.242 -1.282,18.677C15.602,14.408 34.986,13.737 46.316,15.449C47.616,18.224 48.823,21.095 49.928,24.055C39.801,19.596 18.133,18.025 0,22.683M1.796,31.807C-3.884,33.247 -8.996,35.069 -13.539,37.09C-13.988,35.511 -14.453,33.835 -14.929,32.058L-15.777,28.797C-13.592,28.003 -9.477,26.785 -6.82,26.42C-6.333,26.354 -5.858,26.593 -5.688,27.056L-4.885,29.239C-2.823,28.631 -0.715,28.051 1.437,27.507C18.278,23.248 39.051,23.189 50.322,25.126C51.299,27.822 52.191,30.591 52.994,33.428C42.879,28.807 19.778,27.246 1.796,31.807M3.766,40.609C-1.996,42.091 -6.861,43.781 -10.987,45.576C-11.69,43.37 -12.467,40.82 -13.3,37.925C-10.805,37.037 -6.335,35.65 -3.274,35.172C-2.83,35.103 -2.396,35.342 -2.213,35.753L-1.281,37.838C0.186,37.424 1.676,37.024 3.192,36.641C19.816,32.437 42.019,32.365 53.272,34.421C54.023,37.162 54.69,39.965 55.267,42.826C45.185,38.11 20.928,36.194 3.766,40.609M-2.197,13.905C-8.071,15.402 -13.37,17.275 -18.108,19.339C-18.446,17.889 -18.786,16.397 -19.128,14.859C-19.373,13.758 -19.609,12.677 -19.839,11.608C-17.311,10.826 -14.445,9.892 -11.634,9.406C-11.102,9.314 -10.592,9.657 -10.481,10.185L-10.118,11.916C-7.981,11.287 -5.794,10.686 -3.559,10.121C11.629,6.281 30.31,5.219 41.472,6.265C42.964,8.792 44.375,11.42 45.695,14.146C35.505,10.109 16.432,9.157 -2.197,13.905M-6.742,-3.115C-12.389,-1.804 -17.395,-0.012 -21.806,1.996C-22.09,0.527 -22.98,-4.434 -22.98,-4.434C-20.007,-5.847 -16.563,-7.083 -13.723,-7.649C-13.073,-7.778 -12.447,-7.374 -12.434,-6.713L-12.431,-5.721C-10.775,-6.203 -9.081,-6.667 -7.352,-7.1C6.615,-10.602 20.971,-11.212 29.186,-10.349C31.119,-8.259 32.984,-6.037 34.772,-3.696C25.143,-6.57 8.319,-6.611 -6.742,-3.115M-4.444,5.412C-10.424,6.944 -15.584,8.711 -20.056,10.595C-20.377,9.091 -21.549,3.313 -21.549,3.313C-21.569,3.209 -21.589,3.106 -21.609,3.001C-19.366,2.213 -15.712,0.985 -13.086,0.541C-12.502,0.442 -11.946,0.81 -11.875,1.398L-11.683,3.189C-9.632,2.592 -7.538,2.019 -5.399,1.478C6.332,-1.488 24.939,-3.697 35.5,-2.733C37.349,-0.25 39.113,2.364 40.779,5.104C30.548,1.8 11.495,1.328 -4.444,5.412M-7.987,-10.984C-13.74,-9.812 -18.798,-7.73 -23.171,-5.385C-23.377,-6.554 -23.728,-8.802 -23.739,-8.796C-23.798,-9.137 -24.137,-11.309 -24.195,-11.647C-21.584,-13.029 -16.775,-15.212 -13.376,-16.075C-12.679,-16.252 -12.012,-15.719 -12.094,-15.004L-12.166,-14.378C-11.651,-14.536 -11.131,-14.687 -10.609,-14.844C-2.102,-17.392 14.008,-18.97 21.222,-17.912C23.726,-15.834 26.152,-13.557 28.484,-11.095C20.521,-13.283 7.54,-14.147 -7.987,-10.984M8.085,49.163C1.853,50.241 -3.466,52.208 -7.911,54.503C-8.523,52.888 -9.507,50.169 -10.744,46.334C-7.801,45.237 -2.864,44.075 0.572,43.357C1.01,43.266 1.453,43.478 1.66,43.875L2.712,45.898C3.228,45.759 3.746,45.622 4.267,45.487C20.452,41.325 44.54,41.315 55.434,43.68C55.655,44.91 56.284,48.608 56.676,52.046C48.631,49.778 31.785,45.065 8.085,49.163M-9.982,-26.041C-17.603,-24.714 -22.962,-21.751 -25.577,-20.364C-25.812,-21.971 -26.347,-25.799 -26.546,-27.282L-6.904,-31.82L-5.463,-31.565C-0.23,-30.384 4.923,-28.389 9.895,-25.663C2.953,-27.303 -3.225,-27.219 -9.982,-26.041M11.463,-24.772C14.514,-22.99 17.491,-20.933 20.368,-18.614C11.937,-21.223 -2.623,-20.971 -11.632,-18.369C-16.415,-16.988 -20.772,-14.844 -24.369,-12.58C-24.67,-14.404 -25.145,-17.664 -25.406,-19.376C-22.837,-20.7 -16.302,-23.483 -11.794,-24.088C-11.052,-24.188 -10.434,-23.543 -10.645,-22.825C-5.558,-24.223 4.468,-25.416 11.463,-24.772" style="fill:white;fill-rule:nonzero;"/>
        </g>
        <g transform="matrix(-0.293472,4.15632,4.15632,0.293472,364.916,349.979)">
            <path d="M19.293,-16.228C19.293,-16.228 18.732,-11.711 18.587,-8.842C17.827,6.157 19.293,18.273 19.293,18.273L12.729,17.373C13.737,6.067 15.701,-4.91 19.293,-16.228" style="fill:white;fill-rule:nonzero;"/>
        </g>
        <g transform="matrix(184.583,0,0,184.583,77.9883,688.75)">
            <path d="M0.62,-0.012L0.343,-0.703C0.34,-0.712 0.335,-0.715 0.326,-0.715L0.306,-0.715C0.297,-0.715 0.293,-0.712 0.289,-0.703L0.012,-0.012C0.009,-0.005 0.011,0 0.021,0L0.038,0C0.053,0 0.058,-0.002 0.061,-0.011L0.149,-0.232L0.481,-0.232L0.57,-0.011C0.572,-0.002 0.577,0 0.592,0L0.61,0C0.621,0 0.623,-0.005 0.62,-0.012ZM0.326,-0.626L0.468,-0.271L0.163,-0.271L0.305,-0.626C0.312,-0.646 0.313,-0.664 0.313,-0.669L0.316,-0.669C0.317,-0.664 0.319,-0.646 0.326,-0.626Z" style="fill:white;fill-rule:nonzero;"/>
        </g>
        <g transform="matrix(184.583,0,0,184.583,194.645,688.75)">
            <path d="M0.467,-0.512L0.447,-0.512C0.438,-0.512 0.435,-0.509 0.435,-0.501L0.435,-0.085C0.435,-0.07 0.433,-0.06 0.414,-0.051C0.381,-0.038 0.331,-0.025 0.264,-0.025C0.156,-0.025 0.109,-0.079 0.109,-0.181L0.109,-0.501C0.109,-0.509 0.106,-0.512 0.097,-0.512L0.078,-0.512C0.069,-0.512 0.066,-0.509 0.066,-0.501L0.066,-0.179C0.066,-0.058 0.125,0.014 0.26,0.014C0.348,0.014 0.403,-0.003 0.441,-0.018C0.471,-0.031 0.478,-0.043 0.478,-0.073L0.478,-0.501C0.478,-0.509 0.475,-0.512 0.467,-0.512Z" style="fill:white;fill-rule:nonzero;"/>
        </g>
        <g transform="matrix(184.583,0,0,184.583,295.612,688.75)">
            <path d="M0.053,-0.325L0.053,-0.185C0.053,-0.065 0.112,0.007 0.245,0.007C0.33,0.007 0.397,-0.018 0.423,-0.029L0.423,0.039C0.423,0.147 0.376,0.214 0.258,0.214C0.172,0.214 0.13,0.175 0.102,0.119C0.097,0.111 0.093,0.109 0.084,0.114L0.07,0.121C0.061,0.125 0.06,0.131 0.065,0.14C0.098,0.205 0.153,0.253 0.259,0.253C0.408,0.253 0.466,0.168 0.466,0.037L0.466,-0.443C0.466,-0.475 0.459,-0.484 0.427,-0.498C0.391,-0.513 0.335,-0.527 0.263,-0.527C0.12,-0.527 0.053,-0.456 0.053,-0.325ZM0.398,-0.464C0.42,-0.455 0.423,-0.451 0.423,-0.431L0.423,-0.069C0.399,-0.059 0.336,-0.032 0.25,-0.032C0.144,-0.032 0.096,-0.088 0.096,-0.186L0.096,-0.324C0.096,-0.432 0.15,-0.487 0.266,-0.487C0.323,-0.487 0.369,-0.475 0.398,-0.464Z" style="fill:white;fill-rule:nonzero;"/>
        </g>
        <g transform="matrix(184.583,0,0,184.583,394.18,688.75)">
            <path d="M0.467,-0.512L0.447,-0.512C0.438,-0.512 0.435,-0.509 0.435,-0.501L0.435,-0.085C0.435,-0.07 0.433,-0.06 0.414,-0.051C0.381,-0.038 0.331,-0.025 0.264,-0.025C0.156,-0.025 0.109,-0.079 0.109,-0.181L0.109,-0.501C0.109,-0.509 0.106,-0.512 0.097,-0.512L0.078,-0.512C0.069,-0.512 0.066,-0.509 0.066,-0.501L0.066,-0.179C0.066,-0.058 0.125,0.014 0.26,0.014C0.348,0.014 0.403,-0.003 0.441,-0.018C0.471,-0.031 0.478,-0.043 0.478,-0.073L0.478,-0.501C0.478,-0.509 0.475,-0.512 0.467,-0.512Z" style="fill:white;fill-rule:nonzero;"/>
        </g>
        <g transform="matrix(184.583,0,0,184.583,495.147,688.75)">
            <path d="M0.051,-0.383C0.051,-0.256 0.149,-0.246 0.252,-0.236C0.342,-0.227 0.409,-0.214 0.409,-0.13C0.409,-0.063 0.36,-0.024 0.251,-0.024C0.164,-0.024 0.105,-0.052 0.078,-0.126C0.074,-0.135 0.071,-0.136 0.063,-0.133L0.046,-0.128C0.038,-0.125 0.036,-0.12 0.039,-0.112C0.074,-0.022 0.146,0.014 0.252,0.014C0.388,0.014 0.451,-0.042 0.451,-0.132C0.451,-0.244 0.365,-0.264 0.261,-0.274C0.167,-0.283 0.093,-0.289 0.093,-0.384C0.093,-0.452 0.144,-0.488 0.243,-0.488C0.341,-0.488 0.382,-0.453 0.404,-0.399C0.409,-0.392 0.412,-0.39 0.421,-0.394L0.436,-0.4C0.444,-0.404 0.446,-0.409 0.442,-0.417C0.414,-0.484 0.357,-0.527 0.242,-0.527C0.115,-0.527 0.051,-0.473 0.051,-0.383Z" style="fill:white;fill-rule:nonzero;"/>
        </g>
        <g transform="matrix(184.583,0,0,184.583,585.962,688.75)">
            <path d="M0.154,-0.632L0.135,-0.632C0.126,-0.632 0.123,-0.629 0.123,-0.621L0.123,-0.512L0.015,-0.512C0.007,-0.512 0.004,-0.509 0.004,-0.501L0.004,-0.484C0.004,-0.476 0.007,-0.473 0.015,-0.473L0.123,-0.473L0.123,-0.182C0.123,-0.027 0.175,0.015 0.323,0.014C0.332,0.014 0.335,0.011 0.335,0.002L0.335,-0.015C0.335,-0.024 0.332,-0.027 0.323,-0.027C0.203,-0.027 0.166,-0.054 0.166,-0.183L0.166,-0.473L0.325,-0.473C0.334,-0.473 0.337,-0.476 0.337,-0.484L0.337,-0.501C0.337,-0.509 0.334,-0.512 0.325,-0.512L0.166,-0.512L0.166,-0.621C0.166,-0.629 0.163,-0.632 0.154,-0.632Z" style="fill:white;fill-rule:nonzero;"/>
        </g>
        <g transform="matrix(184.583,0,0,184.583,694.497,688.75)">
            <path d="M0.071,-0.545C0.071,-0.438 0.146,-0.394 0.232,-0.364C0.174,-0.347 0.051,-0.299 0.051,-0.164C0.051,-0.055 0.12,0.014 0.304,0.014C0.489,0.014 0.559,-0.062 0.559,-0.173C0.559,-0.291 0.475,-0.332 0.38,-0.362C0.435,-0.378 0.539,-0.422 0.539,-0.548C0.539,-0.663 0.459,-0.724 0.304,-0.724C0.16,-0.724 0.071,-0.661 0.071,-0.545ZM0.494,-0.544C0.494,-0.412 0.357,-0.385 0.327,-0.378L0.312,-0.382C0.212,-0.41 0.118,-0.436 0.118,-0.544C0.118,-0.635 0.187,-0.684 0.305,-0.684C0.428,-0.684 0.494,-0.635 0.494,-0.544ZM0.511,-0.173C0.511,-0.084 0.456,-0.026 0.305,-0.026C0.153,-0.026 0.097,-0.081 0.097,-0.168C0.097,-0.308 0.254,-0.34 0.283,-0.346C0.407,-0.312 0.511,-0.292 0.511,-0.173Z" style="fill:white;fill-rule:nonzero;"/>
        </g>
        <g transform="matrix(184.583,0,0,184.583,807.092,688.75)">
            <path d="M0.154,-0.632L0.135,-0.632C0.126,-0.632 0.123,-0.629 0.123,-0.621L0.123,-0.512L0.015,-0.512C0.007,-0.512 0.004,-0.509 0.004,-0.501L0.004,-0.484C0.004,-0.476 0.007,-0.473 0.015,-0.473L0.123,-0.473L0.123,-0.182C0.123,-0.027 0.175,0.015 0.323,0.014C0.332,0.014 0.335,0.011 0.335,0.002L0.335,-0.015C0.335,-0.024 0.332,-0.027 0.323,-0.027C0.203,-0.027 0.166,-0.054 0.166,-0.183L0.166,-0.473L0.325,-0.473C0.334,-0.473 0.337,-0.476 0.337,-0.484L0.337,-0.501C0.337,-0.509 0.334,-0.512 0.325,-0.512L0.166,-0.512L0.166,-0.621C0.166,-0.629 0.163,-0.632 0.154,-0.632Z" style="fill:white;fill-rule:nonzero;"/>
        </g>
        <g transform="matrix(184.583,0,0,184.583,870.589,688.75)">
            <path d="M0.102,-0.74L0.083,-0.74C0.074,-0.74 0.071,-0.737 0.071,-0.728L0.071,-0.012C0.071,-0.003 0.074,0 0.083,0L0.102,0C0.111,0 0.114,-0.003 0.114,-0.012L0.114,-0.451C0.157,-0.472 0.216,-0.487 0.285,-0.487C0.393,-0.487 0.44,-0.432 0.44,-0.332L0.44,-0.012C0.44,-0.003 0.443,0 0.452,0L0.472,0C0.48,0 0.483,-0.003 0.483,-0.012L0.483,-0.334C0.483,-0.455 0.424,-0.527 0.29,-0.527C0.215,-0.527 0.155,-0.511 0.114,-0.492L0.114,-0.728C0.114,-0.737 0.111,-0.74 0.102,-0.74Z" style="fill:white;fill-rule:nonzero;"/>
        </g>
        <g transform="matrix(184.583,0,0,184.583,1016.96,688.75)">
            <path d="M0.154,-0.632L0.135,-0.632C0.126,-0.632 0.123,-0.629 0.123,-0.621L0.123,-0.512L0.015,-0.512C0.007,-0.512 0.004,-0.509 0.004,-0.501L0.004,-0.484C0.004,-0.476 0.007,-0.473 0.015,-0.473L0.123,-0.473L0.123,-0.182C0.123,-0.027 0.175,0.015 0.323,0.014C0.332,0.014 0.335,0.011 0.335,0.002L0.335,-0.015C0.335,-0.024 0.332,-0.027 0.323,-0.027C0.203,-0.027 0.166,-0.054 0.166,-0.183L0.166,-0.473L0.325,-0.473C0.334,-0.473 0.337,-0.476 0.337,-0.484L0.337,-0.501C0.337,-0.509 0.334,-0.512 0.325,-0.512L0.166,-0.512L0.166,-0.621C0.166,-0.629 0.163,-0.632 0.154,-0.632Z" style="fill:white;fill-rule:nonzero;"/>
        </g>
        <g transform="matrix(184.583,0,0,184.583,1080.46,688.75)">
            <path d="M0.054,-0.351L0.054,-0.161C0.054,-0.052 0.138,0.014 0.268,0.014C0.4,0.014 0.483,-0.052 0.483,-0.161L0.483,-0.351C0.483,-0.46 0.4,-0.527 0.268,-0.527C0.138,-0.527 0.054,-0.46 0.054,-0.351ZM0.44,-0.352L0.44,-0.161C0.44,-0.077 0.372,-0.025 0.268,-0.025C0.166,-0.025 0.097,-0.077 0.097,-0.161L0.097,-0.352C0.097,-0.436 0.166,-0.488 0.268,-0.488C0.372,-0.488 0.44,-0.436 0.44,-0.352Z" style="fill:white;fill-rule:nonzero;"/>
        </g>
        <g transform="matrix(184.583,0,0,184.583,1224.62,688.75)">
            <path d="M0.055,-0.562C0.052,-0.553 0.054,-0.55 0.063,-0.546L0.083,-0.539C0.091,-0.536 0.095,-0.538 0.099,-0.546C0.139,-0.636 0.201,-0.681 0.31,-0.681C0.414,-0.681 0.484,-0.606 0.484,-0.513C0.484,-0.38 0.376,-0.345 0.266,-0.303C0.157,-0.261 0.053,-0.218 0.053,-0.085L0.053,-0.013C0.053,-0.004 0.057,0 0.066,0L0.516,0C0.526,0 0.529,-0.003 0.529,-0.013L0.529,-0.031C0.529,-0.04 0.526,-0.043 0.516,-0.043L0.101,-0.043L0.101,-0.093C0.101,-0.192 0.189,-0.226 0.279,-0.26C0.422,-0.316 0.532,-0.361 0.532,-0.515C0.532,-0.629 0.444,-0.724 0.311,-0.724C0.178,-0.724 0.101,-0.668 0.055,-0.562Z" style="fill:white;fill-rule:nonzero;"/>
        </g>
        <g transform="matrix(184.583,0,0,184.583,1332.6,688.75)">
            <path d="M0.061,-0.497L0.061,-0.213C0.061,-0.073 0.152,0.014 0.311,0.014C0.47,0.014 0.561,-0.073 0.561,-0.213L0.561,-0.497C0.561,-0.636 0.47,-0.724 0.311,-0.724C0.152,-0.724 0.061,-0.636 0.061,-0.497ZM0.515,-0.497L0.515,-0.213C0.515,-0.098 0.442,-0.029 0.311,-0.029C0.18,-0.029 0.107,-0.098 0.107,-0.213L0.107,-0.497C0.107,-0.611 0.18,-0.681 0.311,-0.681C0.442,-0.681 0.515,-0.611 0.515,-0.497Z" style="fill:white;fill-rule:nonzero;"/>
        </g>
        <g transform="matrix(184.583,0,0,184.583,1447.41,688.75)">
            <path d="M0.154,-0.632L0.135,-0.632C0.126,-0.632 0.123,-0.629 0.123,-0.621L0.123,-0.512L0.015,-0.512C0.007,-0.512 0.004,-0.509 0.004,-0.501L0.004,-0.484C0.004,-0.476 0.007,-0.473 0.015,-0.473L0.123,-0.473L0.123,-0.182C0.123,-0.027 0.175,0.015 0.323,0.014C0.332,0.014 0.335,0.011 0.335,0.002L0.335,-0.015C0.335,-0.024 0.332,-0.027 0.323,-0.027C0.203,-0.027 0.166,-0.054 0.166,-0.183L0.166,-0.473L0.325,-0.473C0.334,-0.473 0.337,-0.476 0.337,-0.484L0.337,-0.501C0.337,-0.509 0.334,-0.512 0.325,-0.512L0.166,-0.512L0.166,-0.621C0.166,-0.629 0.163,-0.632 0.154,-0.632Z" style="fill:white;fill-rule:nonzero;"/>
        </g>
        <g transform="matrix(184.583,0,0,184.583,1510.91,688.75)">
            <path d="M0.102,-0.74L0.083,-0.74C0.074,-0.74 0.071,-0.737 0.071,-0.728L0.071,-0.012C0.071,-0.003 0.074,0 0.083,0L0.102,0C0.111,0 0.114,-0.003 0.114,-0.012L0.114,-0.451C0.157,-0.472 0.216,-0.487 0.285,-0.487C0.393,-0.487 0.44,-0.432 0.44,-0.332L0.44,-0.012C0.44,-0.003 0.443,0 0.452,0L0.472,0C0.48,0 0.483,-0.003 0.483,-0.012L0.483,-0.334C0.483,-0.455 0.424,-0.527 0.29,-0.527C0.215,-0.527 0.155,-0.511 0.114,-0.492L0.114,-0.728C0.114,-0.737 0.111,-0.74 0.102,-0.74Z" style="fill:white;fill-rule:nonzero;"/>
        </g>
        <g transform="matrix(4.16667,0,0,4.16667,648.125,212.4)">
            <path d="M0,14.151L23.708,14.151L23.708,23.256L35.399,23.256L35.399,14.151L41.355,14.151L41.355,3.993L35.399,3.993L35.399,-24.686L23.745,-24.686L23.708,-24.686L23.708,-24.641L0.07,3.993L0,3.993L0,14.151ZM23.708,-10.643L23.708,3.993L11.675,3.993L23.708,-10.643ZM-17.094,38.837L41.355,38.837L41.355,28.677L-17.094,28.677L-17.094,38.837ZM-17.094,-24.686L-5.396,-24.686L-5.396,23.256L-17.094,23.256L-17.094,-24.686Z" style="fill:white;fill-rule:nonzero;"/>
        </g>
        <g transform="matrix(4.16667,0,0,4.16667,1022.44,231.17)">
            <path d="M0,-27.094L-8.121,0.479C-8.483,1.817 -9.277,2.181 -10.668,2.181L-12.733,2.181C-14.185,2.181 -14.91,1.817 -15.332,0.479L-19.755,-15.035C-20.542,-17.942 -20.785,-21.034 -20.853,-21.276L-21.155,-21.276C-21.216,-21.034 -21.517,-17.942 -22.304,-15.035L-26.726,0.479C-27.09,1.817 -27.877,2.181 -29.274,2.181L-31.271,2.181C-32.661,2.181 -33.456,1.817 -33.818,0.479L-41.878,-27.094C-42.422,-28.851 -42.18,-29.275 -40.358,-29.275L-37.999,-29.275C-35.754,-29.275 -34.968,-28.972 -34.665,-27.396L-31.21,-13.821C-30.666,-11.156 -30.303,-6.734 -30.182,-6.43L-29.88,-6.43C-29.819,-6.734 -29.395,-11.036 -28.602,-13.882L-24.602,-27.154C-24.118,-28.791 -23.755,-29.093 -21.517,-29.093L-20.119,-29.093C-17.881,-29.093 -17.519,-28.791 -17.035,-27.215L-12.974,-13.882C-12.059,-10.793 -11.756,-6.734 -11.697,-6.43L-11.334,-6.43C-11.273,-6.734 -11.092,-10.427 -10.305,-13.882L-6.971,-27.396C-6.608,-28.972 -5.882,-29.275 -3.577,-29.275L-1.58,-29.275C0.242,-29.275 0.483,-28.851 0,-27.094" style="fill:white;fill-rule:nonzero;"/>
        </g>
        <g transform="matrix(4.16667,0,0,4.16667,1094.13,243.786)">
            <path d="M0,-33.21C9.087,-33.21 13.994,-28.605 13.994,-21.091L13.994,-12.124C13.994,-4.607 9.087,0 0,0C-8.967,0 -13.942,-4.607 -13.942,-12.124L-13.942,-21.091C-13.942,-28.605 -8.967,-33.21 0,-33.21M0,-26.847C-4.424,-26.847 -6.911,-24.787 -6.911,-21.091L-6.911,-12.124C-6.911,-8.487 -4.424,-6.367 0,-6.367C4.483,-6.367 6.963,-8.487 6.963,-12.124L6.963,-21.091C6.963,-24.787 4.483,-26.847 0,-26.847" style="fill:white;fill-rule:nonzero;"/>
        </g>
        <g transform="matrix(4.16667,0,0,4.16667,1241.8,240.002)">
            <path d="M0,-32.302C1.4,-32.302 1.883,-31.879 1.883,-30.423L1.883,-27.758C1.883,-26.363 1.4,-25.879 0,-25.879L-2.176,-25.879C-4.544,-25.879 -6.358,-25.637 -7.938,-25.153C-8.483,-25.033 -8.543,-24.726 -8.543,-24.424L-8.543,-1.882C-8.543,-0.484 -8.966,0 -10.357,0L-13.691,0C-15.082,0 -15.566,-0.484 -15.566,-1.882L-15.566,-27.032C-15.566,-28.971 -15.143,-29.697 -13.207,-30.484C-10.961,-31.334 -7.325,-32.181 -1.935,-32.302L0,-32.302Z" style="fill:white;fill-rule:nonzero;"/>
        </g>
        <g transform="matrix(4.16667,0,0,4.16667,1288.51,53.1504)">
            <path d="M0,44.845L-3.274,44.845C-4.724,44.845 -5.148,44.361 -5.148,42.962L-5.148,1.878C-5.148,0.484 -4.724,0 -3.274,0L0,0C1.399,0 1.883,0.484 1.883,1.878L1.883,42.962C1.883,44.361 1.399,44.845 0,44.845" style="fill:white;fill-rule:nonzero;"/>
        </g>
        <g transform="matrix(4.16667,0,0,4.16667,1375.1,191.523)">
            <path d="M0,-20.667C2.971,-20.667 5.52,-20.183 7.213,-19.88L7.213,-31.331C7.213,-32.726 7.637,-33.21 9.026,-33.21L12.361,-33.21C13.761,-33.21 14.244,-32.726 14.244,-31.331L14.244,7.27C14.244,9.27 13.761,9.813 11.818,10.607C9.399,11.515 6.004,12.543 0.483,12.543C-8.543,12.543 -12.664,8.057 -12.664,0.299L-12.664,-8.003C-12.664,-16.184 -8.422,-20.667 0,-20.667M1.339,-14.244C-3.454,-14.244 -5.633,-12.123 -5.633,-7.821L-5.633,0.056C-5.633,3.995 -3.273,6.116 1.157,6.116C3.335,6.116 5.217,5.875 6.73,5.451C7.152,5.269 7.213,5.144 7.213,4.781L7.213,-13.458C5.823,-13.76 3.757,-14.244 1.339,-14.244" style="fill:white;fill-rule:nonzero;"/>
        </g>
        <g transform="matrix(4.16667,0,0,4.16667,1510.18,243.786)">
            <path d="M0,-33.21C7.031,-33.21 11.031,-30.666 12.966,-26.727C13.7,-25.332 13.328,-24.606 11.998,-24.001L9.275,-22.909C7.938,-22.304 7.515,-22.485 6.729,-23.759C5.701,-25.574 4.06,-26.908 0.181,-26.908C-3.757,-26.908 -5.511,-25.82 -5.511,-23.638C-5.511,-20.788 -3.093,-20.304 1.581,-19.881C8.785,-19.151 13.942,-17.515 13.942,-10.124C13.942,-4.183 9.457,0 0.847,0C-6.297,0 -10.843,-2.609 -12.664,-7.338C-13.147,-8.608 -12.846,-9.394 -11.454,-9.882L-8.725,-10.729C-7.516,-11.152 -6.842,-10.97 -6.237,-9.58C-5.27,-7.213 -3.093,-6.245 0.605,-6.245C4.907,-6.245 7.031,-7.459 7.031,-9.822C7.031,-12.668 4.664,-13.212 -0.241,-13.701C-6.176,-14.305 -12.483,-15.579 -12.483,-23.453C-12.483,-29.211 -8.363,-33.21 0,-33.21" style="fill:white;fill-rule:nonzero;"/>
        </g>
        <g transform="matrix(4.16667,0,0,4.16667,917.456,371.256)">
            <path d="M0,-21.22L0,-20.332C0,-19.857 -0.161,-19.695 -0.602,-19.695L-11.785,-19.695L-11.785,-11.498L-2.152,-11.498C-1.712,-11.498 -1.551,-11.372 -1.551,-10.896L-1.551,-10.008C-1.551,-9.533 -1.712,-9.38 -2.152,-9.38L-11.785,-9.38L-11.785,-0.008C-11.785,0.467 -11.911,0.629 -12.386,0.629L-13.427,0.629C-13.903,0.629 -14.064,0.467 -14.064,-0.008L-14.064,-21.22C-14.064,-21.695 -13.903,-21.849 -13.427,-21.849L-0.602,-21.849C-0.161,-21.849 0,-21.695 0,-21.22" style="fill:white;fill-rule:nonzero;"/>
        </g>
        <g transform="matrix(4.16667,0,0,4.16667,936.29,371.256)">
            <path d="M0,-21.22L0,-1.525L10.735,-1.525C11.184,-1.525 11.338,-1.363 11.338,-0.888L11.338,-0.008C11.338,0.467 11.184,0.629 10.735,0.629L-1.642,0.629C-2.117,0.629 -2.279,0.467 -2.279,-0.008L-2.279,-21.22C-2.279,-21.695 -2.117,-21.849 -1.642,-21.849L-0.601,-21.849C-0.126,-21.849 0,-21.695 0,-21.22" style="fill:white;fill-rule:nonzero;"/>
        </g>
        <g transform="matrix(4.16667,0,0,4.16667,1048.84,371.256)">
            <path d="M0,-21.22L0,-20.332C0,-19.857 -0.16,-19.695 -0.6,-19.695L-11.783,-19.695L-11.783,-11.847L-2.026,-11.847C-1.586,-11.847 -1.425,-11.687 -1.425,-11.211L-1.425,-10.324C-1.425,-9.856 -1.586,-9.695 -2.026,-9.695L-11.783,-9.695L-11.783,-1.525L-0.189,-1.525C0.253,-1.525 0.414,-1.363 0.414,-0.888L0.414,-0.008C0.414,0.467 0.253,0.629 -0.189,0.629L-13.426,0.629C-13.901,0.629 -14.063,0.467 -14.063,-0.008L-14.063,-21.22C-14.063,-21.695 -13.901,-21.849 -13.426,-21.849L-0.6,-21.849C-0.16,-21.849 0,-21.695 0,-21.22" style="fill:white;fill-rule:nonzero;"/>
        </g>
        <g transform="matrix(4.16667,0,0,4.16667,1136.45,371.256)">
            <path d="M0,-21.22L0,-0.008C0,0.467 -0.162,0.629 -0.637,0.629L-1.652,0.629C-2,0.629 -2.154,0.566 -2.316,0.279L-12.415,-14.224C-13.589,-15.965 -14.469,-18.054 -14.944,-18.753L-15.078,-18.753C-15.078,-17.866 -14.728,-15.49 -14.728,-13.148L-14.728,-0.008C-14.728,0.467 -14.881,0.629 -15.33,0.629L-16.307,0.629C-16.782,0.629 -16.944,0.467 -16.944,-0.008L-16.944,-21.22C-16.944,-21.695 -16.782,-21.849 -16.307,-21.849L-15.294,-21.849C-14.917,-21.849 -14.756,-21.723 -14.631,-21.535L-4.782,-7.318C-3.482,-5.417 -2.54,-3.299 -1.966,-2.538L-1.867,-2.538C-1.867,-3.551 -2.253,-5.928 -2.253,-8.43L-2.253,-21.248C-2.253,-21.695 -2.091,-21.849 -1.616,-21.849L-0.637,-21.849C-0.162,-21.849 0,-21.695 0,-21.22" style="fill:white;fill-rule:nonzero;"/>
        </g>
        <g transform="matrix(4.16667,0,0,4.16667,1187.63,375.711)">
            <path d="M0,-23.365C4.368,-23.365 6.708,-21.814 8.324,-18.487C8.547,-18.073 8.422,-17.859 7.975,-17.661L6.996,-17.222C6.583,-17.034 6.422,-17.096 6.171,-17.509C4.933,-19.947 3.192,-21.177 0,-21.177C-3.74,-21.177 -5.83,-19.689 -5.83,-16.998C-5.83,-13.742 -2.629,-13.231 0.726,-12.854C4.521,-12.406 8.673,-11.68 8.673,-6.648C8.673,-2.495 5.696,0 0.062,0C-4.53,0 -7.067,-1.769 -8.521,-5.445C-8.682,-5.92 -8.584,-6.11 -8.145,-6.297L-7.158,-6.648C-6.719,-6.808 -6.558,-6.71 -6.334,-6.27C-5.166,-3.508 -3.104,-2.153 0.062,-2.153C4.208,-2.153 6.359,-3.607 6.359,-6.584C6.359,-9.814 3.381,-10.289 0.188,-10.638C-3.74,-11.078 -8.171,-11.743 -8.171,-16.872C-8.171,-20.765 -5.229,-23.365 0,-23.365" style="fill:white;fill-rule:nonzero;"/>
        </g>
        <g transform="matrix(4.16667,0,0,4.16667,1304.9,349.88)">
            <path d="M0,-10.96C0,-8.395 -1.012,-6.745 -2.978,-5.892L-2.978,-5.828C-0.567,-5.193 0.791,-3.3 0.791,-0.287C0.791,3.605 -1.803,5.759 -5.766,5.759L-15.041,5.759C-15.516,5.759 -15.678,5.597 -15.678,5.122L-15.678,-16.09C-15.678,-16.565 -15.516,-16.719 -15.041,-16.719L-6.108,-16.719C-2.25,-16.719 0,-14.699 0,-10.96M-6.394,-14.565L-13.391,-14.565L-13.391,-6.717L-6.394,-6.717C-3.803,-6.717 -2.341,-8.045 -2.341,-10.673C-2.341,-13.274 -3.766,-14.565 -6.394,-14.565M-5.857,-4.656L-13.391,-4.656L-13.391,3.605L-5.857,3.605C-3.13,3.605 -1.613,2.215 -1.613,-0.511C-1.613,-3.202 -3.13,-4.656 -5.857,-4.656" style="fill:white;fill-rule:nonzero;"/>
        </g>
        <g transform="matrix(4.16667,0,0,4.16667,1359.12,289.19)">
            <path d="M0,18.647C4.18,18.647 6.207,16.367 6.207,12.692L6.207,-1.524C6.207,-1.999 6.368,-2.153 6.843,-2.153L7.884,-2.153C8.359,-2.153 8.521,-1.999 8.521,-1.524L8.521,12.665C8.521,17.599 5.668,20.8 0,20.8C-5.669,20.8 -8.52,17.599 -8.52,12.665L-8.52,-1.524C-8.52,-1.999 -8.36,-2.153 -7.885,-2.153L-6.843,-2.153C-6.368,-2.153 -6.206,-1.999 -6.206,-1.524L-6.206,12.692C-6.206,16.367 -4.179,18.647 0,18.647" style="fill:white;fill-rule:nonzero;"/>
        </g>
        <g transform="matrix(4.16667,0,0,4.16667,1482.06,346.589)">
            <path d="M0,-9.38C0,-5.865 -1.929,-3.675 -5.095,-3.174C-4.143,-2.726 -3.579,-2.034 -3.039,-0.985L0.512,5.912C0.728,6.262 0.666,6.549 0.19,6.549L-0.851,6.549C-1.614,6.549 -1.865,6.45 -2.089,5.975L-5.157,-0.133C-6.143,-2.097 -7.184,-2.887 -9.686,-2.887L-13.964,-2.887L-13.964,5.912C-13.964,6.387 -14.09,6.549 -14.566,6.549L-15.607,6.549C-16.082,6.549 -16.242,6.387 -16.242,5.912L-16.242,-15.3C-16.242,-15.775 -16.082,-15.929 -15.607,-15.929L-6.646,-15.929C-2.501,-15.929 0,-13.525 0,-9.38M-6.871,-13.775L-13.964,-13.775L-13.964,-5.038L-6.871,-5.038C-4.054,-5.038 -2.375,-6.592 -2.375,-9.38C-2.375,-12.196 -3.99,-13.775 -6.871,-13.775" style="fill:white;fill-rule:nonzero;"/>
        </g>
        <g transform="matrix(4.16667,0,0,4.16667,1569.02,326.125)">
            <path d="M0,0.437L0,4.339C0,8.868 -3.041,11.901 -8.682,11.901C-14.351,11.901 -17.383,8.868 -17.383,3.927L-17.383,-3.518C-17.383,-8.459 -14.377,-11.464 -8.71,-11.464C-3.865,-11.464 -1.399,-9.563 -0.287,-6.048C-0.127,-5.573 -0.224,-5.384 -0.665,-5.223L-1.649,-4.881C-2.09,-4.749 -2.286,-4.818 -2.474,-5.259C-3.328,-8.013 -5.068,-9.339 -8.71,-9.339C-12.924,-9.339 -15.105,-7.188 -15.105,-3.546L-15.105,3.927C-15.105,7.594 -12.861,9.783 -8.682,9.783C-4.529,9.783 -2.252,7.594 -2.252,4.339L-2.252,1.961L-8.36,1.961C-8.836,1.961 -8.996,1.801 -8.996,1.325L-8.996,0.437C-8.996,-0.031 -8.836,-0.191 -8.36,-0.191L-0.637,-0.191C-0.162,-0.191 0,-0.031 0,0.437" style="fill:white;fill-rule:nonzero;"/>
        </g>
        <g transform="matrix(4.16667,0,0,4.16667,655.282,458.862)">
            <path d="M0,0.48L0,4.695C0,9.595 -3.29,12.884 -9.39,12.884C-15.522,12.884 -18.812,9.595 -18.812,4.249L-18.812,-3.803C-18.812,-9.149 -15.557,-12.404 -9.422,-12.404C-4.181,-12.404 -1.508,-10.348 -0.309,-6.545C-0.137,-6.03 -0.24,-5.824 -0.72,-5.654L-1.782,-5.276C-2.262,-5.139 -2.467,-5.208 -2.673,-5.687C-3.598,-8.668 -5.483,-10.108 -9.422,-10.108C-13.981,-10.108 -16.345,-7.778 -16.345,-3.838L-16.345,4.249C-16.345,8.224 -13.912,10.588 -9.39,10.588C-4.9,10.588 -2.433,8.224 -2.433,4.695L-2.433,2.125L-9.047,2.125C-9.56,2.125 -9.731,1.954 -9.731,1.44L-9.731,0.48C-9.731,-0.034 -9.56,-0.205 -9.047,-0.205L-0.686,-0.205C-0.171,-0.205 0,-0.034 0,0.48" style="fill:white;fill-rule:nonzero;"/>
        </g>
        <g transform="matrix(4.16667,0,0,4.16667,736.803,507.693)">
            <path d="M0,-22.958L0,-21.999C0,-21.485 -0.171,-21.314 -0.651,-21.314L-12.746,-21.314L-12.746,-12.815L-2.193,-12.815C-1.713,-12.815 -1.542,-12.644 -1.542,-12.13L-1.542,-11.171C-1.542,-10.656 -1.713,-10.485 -2.193,-10.485L-12.746,-10.485L-12.746,-1.646L-0.205,-1.646C0.275,-1.646 0.446,-1.474 0.446,-0.96L0.446,0C0.446,0.513 0.275,0.685 -0.205,0.685L-14.528,0.685C-15.042,0.685 -15.214,0.513 -15.214,0L-15.214,-22.958C-15.214,-23.471 -15.042,-23.643 -14.528,-23.643L-0.651,-23.643C-0.171,-23.643 0,-23.471 0,-22.958" style="fill:white;fill-rule:nonzero;"/>
        </g>
        <g transform="matrix(4.16667,0,0,4.16667,828.464,480.997)">
            <path d="M0,-10.143C0,-6.34 -2.09,-3.976 -5.516,-3.428C-4.489,-2.947 -3.872,-2.194 -3.29,-1.063L0.548,6.407C0.788,6.783 0.719,7.093 0.205,7.093L-0.925,7.093C-1.747,7.093 -2.021,6.99 -2.261,6.475L-5.586,-0.138C-6.648,-2.262 -7.778,-3.118 -10.485,-3.118L-15.111,-3.118L-15.111,6.407C-15.111,6.92 -15.248,7.093 -15.762,7.093L-16.893,7.093C-17.406,7.093 -17.578,6.92 -17.578,6.407L-17.578,-16.551C-17.578,-17.064 -17.406,-17.236 -16.893,-17.236L-7.196,-17.236C-2.707,-17.236 0,-14.632 0,-10.143M-7.436,-14.907L-15.111,-14.907L-15.111,-5.449L-7.436,-5.449C-4.386,-5.449 -2.57,-7.128 -2.57,-10.143C-2.57,-13.193 -4.318,-14.907 -7.436,-14.907" style="fill:white;fill-rule:nonzero;"/>
        </g>
        <g transform="matrix(4.16667,0,0,4.16667,939.255,507.693)">
            <path d="M0,-22.958L0,0C0,0.513 -0.171,0.685 -0.685,0.685L-1.713,0.685C-2.227,0.685 -2.398,0.513 -2.398,0L-2.364,-13.981C-2.364,-15.83 -2.261,-17.852 -1.953,-20.045L-2.09,-20.045C-2.947,-18.024 -3.769,-16.413 -4.728,-14.7L-9.937,-5.517C-10.142,-5.106 -10.313,-5.003 -10.725,-5.003L-11.41,-5.003C-11.821,-5.003 -11.993,-5.072 -12.232,-5.517L-17.509,-14.803C-18.503,-16.482 -19.188,-17.99 -20.01,-20.08L-20.148,-20.08C-19.873,-17.818 -19.77,-15.899 -19.77,-13.946L-19.77,0C-19.77,0.513 -19.943,0.685 -20.456,0.685L-21.415,0.685C-21.929,0.685 -22.101,0.513 -22.101,0L-22.101,-22.958C-22.101,-23.471 -21.929,-23.643 -21.415,-23.643L-20.525,-23.643C-19.977,-23.643 -19.805,-23.506 -19.565,-23.095L-11.067,-8.053L-2.638,-23.06C-2.364,-23.54 -2.227,-23.643 -1.679,-23.643L-0.685,-23.643C-0.171,-23.643 0,-23.471 0,-22.958" style="fill:white;fill-rule:nonzero;"/>
        </g>
        <g transform="matrix(4.16667,0,0,4.16667,1038.05,408.753)">
            <path d="M0,24.431L-0.994,24.431C-1.816,24.431 -2.09,24.293 -2.227,23.814L-4.797,17.303L-15.522,17.303L-18.092,23.814C-18.229,24.293 -18.469,24.431 -19.291,24.431L-20.216,24.431C-20.73,24.431 -20.833,24.191 -20.662,23.78L-11.479,0.582C-11.307,0.103 -11.102,0 -10.622,0L-9.594,0C-9.114,0 -8.874,0.103 -8.703,0.548L0.48,23.78C0.651,24.191 0.549,24.431 0,24.431M-10.074,2.364L-10.245,2.364C-10.245,2.466 -10.279,3.563 -10.656,4.728L-14.802,15.247L-5.482,15.247L-9.594,4.728C-10.005,3.563 -10.074,2.466 -10.074,2.364" style="fill:white;fill-rule:nonzero;"/>
        </g>
        <g transform="matrix(4.16667,0,0,4.16667,1129.28,507.693)">
            <path d="M0,-22.958L0,0C0,0.513 -0.171,0.685 -0.684,0.685L-1.782,0.685C-2.158,0.685 -2.33,0.616 -2.501,0.308L-13.432,-15.385C-14.699,-17.27 -15.659,-19.531 -16.173,-20.285L-16.31,-20.285C-16.31,-19.325 -15.933,-16.755 -15.933,-14.221L-15.933,0C-15.933,0.513 -16.104,0.685 -16.584,0.685L-17.646,0.685C-18.16,0.685 -18.332,0.513 -18.332,0L-18.332,-22.958C-18.332,-23.471 -18.16,-23.643 -17.646,-23.643L-16.549,-23.643C-16.139,-23.643 -15.967,-23.506 -15.83,-23.3L-5.174,-7.916C-3.769,-5.859 -2.741,-3.563 -2.124,-2.742L-2.021,-2.742C-2.021,-3.838 -2.432,-6.407 -2.432,-9.115L-2.432,-22.992C-2.432,-23.471 -2.261,-23.643 -1.747,-23.643L-0.684,-23.643C-0.171,-23.643 0,-23.471 0,-22.958" style="fill:white;fill-rule:nonzero;"/>
        </g>
        <g transform="matrix(4.16667,0,0,4.16667,1224.8,507.693)">
            <path d="M0,-22.958L-8.943,-9.183L-8.943,0C-8.943,0.513 -9.114,0.685 -9.629,0.685L-10.759,0.685C-11.273,0.685 -11.444,0.513 -11.444,0L-11.444,-9.217L-20.388,-22.958C-20.627,-23.335 -20.525,-23.643 -20.045,-23.643L-18.64,-23.643C-17.852,-23.643 -17.646,-23.608 -17.338,-23.026L-10.177,-11.754L-2.947,-23.026C-2.638,-23.608 -2.433,-23.643 -1.645,-23.643L-0.343,-23.643C0.137,-23.643 0.239,-23.335 0,-22.958" style="fill:white;fill-rule:nonzero;"/>
        </g>
        <g transform="matrix(4.16667,0,0,4.16667,1239.65,472)">
            <path d="M0,-0.206L0,0.034C0,1.063 -0.309,1.371 -1.336,1.371L-1.542,1.371C-2.569,1.371 -2.912,1.063 -2.912,0.034L-2.912,-0.206C-2.912,-1.234 -2.569,-1.577 -1.542,-1.577L-1.336,-1.577C-0.309,-1.577 0,-1.234 0,-0.206" style="fill:white;fill-rule:nonzero;"/>
        </g>
        <g transform="matrix(4.16667,0,0,4.16667,1303.61,510.55)">
            <path d="M0,-24.809C4.797,-24.809 7.847,-21.452 7.847,-17.476C7.847,-12.267 4.455,-10.588 -1.097,-8.396C-3.632,-7.436 -6.339,-6.443 -6.339,-3.667L-6.339,-2.332L6.956,-2.332C7.47,-2.332 7.641,-2.159 7.641,-1.646L7.641,-0.686C7.641,-0.172 7.47,0 6.956,0L-8.224,0C-8.737,0 -8.943,-0.172 -8.943,-0.686L-8.943,-3.188C-8.943,-7.779 -5.414,-9.287 -1.816,-10.691C1.747,-12.062 5.242,-13.227 5.242,-17.373C5.242,-20.216 3.118,-22.513 -0.068,-22.513C-3.358,-22.513 -5.242,-21.142 -6.476,-18.402C-6.682,-17.921 -6.853,-17.819 -7.333,-17.989L-8.395,-18.402C-8.875,-18.572 -9.011,-18.778 -8.806,-19.258C-7.299,-22.788 -4.66,-24.809 0,-24.809" style="fill:white;fill-rule:nonzero;"/>
        </g>
        <g transform="matrix(4.16667,0,0,4.16667,1388.13,512.542)">
            <path d="M0,-25.287C5.551,-25.287 8.737,-22.238 8.737,-17.336L8.737,-7.949C8.737,-3.048 5.551,0 0,0C-5.551,0 -8.737,-3.048 -8.737,-7.949L-8.737,-17.336C-8.737,-22.238 -5.551,-25.287 0,-25.287M0,-22.991C-4.009,-22.991 -6.27,-20.867 -6.27,-17.336L-6.27,-7.949C-6.27,-4.419 -4.009,-2.295 0,-2.295C3.975,-2.295 6.236,-4.419 6.236,-7.949L6.236,-17.336C6.236,-20.867 3.975,-22.991 0,-22.991" style="fill:white;fill-rule:nonzero;"/>
        </g>
        <g transform="matrix(4.16667,0,0,4.16667,1477.22,510.55)">
            <path d="M0,-24.809C4.798,-24.809 7.847,-21.452 7.847,-17.476C7.847,-12.267 4.455,-10.588 -1.096,-8.396C-3.632,-7.436 -6.339,-6.443 -6.339,-3.667L-6.339,-2.332L6.956,-2.332C7.471,-2.332 7.642,-2.159 7.642,-1.646L7.642,-0.686C7.642,-0.172 7.471,0 6.956,0L-8.223,0C-8.737,0 -8.942,-0.172 -8.942,-0.686L-8.942,-3.188C-8.942,-7.779 -5.413,-9.287 -1.815,-10.691C1.748,-12.062 5.243,-13.227 5.243,-17.373C5.243,-20.216 3.119,-22.513 -0.068,-22.513C-3.358,-22.513 -5.242,-21.142 -6.475,-18.402C-6.681,-17.921 -6.853,-17.819 -7.332,-17.989L-8.394,-18.402C-8.874,-18.572 -9.011,-18.778 -8.805,-19.258C-7.298,-22.788 -4.66,-24.809 0,-24.809" style="fill:white;fill-rule:nonzero;"/>
        </g>
        <g transform="matrix(4.16667,0,0,4.16667,1567.88,507.693)">
            <path d="M0,-22.958L0,0C0,0.513 -0.172,0.685 -0.686,0.685L-1.782,0.685C-2.331,0.685 -2.501,0.513 -2.501,0L-2.501,-20.628L-9.732,-16.618C-10.211,-16.345 -10.485,-16.413 -10.725,-16.858L-11.239,-17.784C-11.479,-18.195 -11.377,-18.435 -10.932,-18.675L-2.57,-23.368C-2.227,-23.575 -2.056,-23.643 -1.611,-23.643L-0.686,-23.643C-0.172,-23.643 0,-23.471 0,-22.958" style="fill:white;fill-rule:nonzero;"/>
        </g>
    </g>
</svg>
