<?xml version="1.0" encoding="UTF-8" standalone="no"?>
<!DOCTYPE svg PUBLIC "-//W3C//DTD SVG 1.1//EN" "http://www.w3.org/Graphics/SVG/1.1/DTD/svg11.dtd">
<svg width="100%" height="100%" viewBox="0 0 75 40" version="1.1" xmlns="http://www.w3.org/2000/svg" xmlns:xlink="http://www.w3.org/1999/xlink" xml:space="preserve" xmlns:serif="http://www.serif.com/" style="fill-rule:evenodd;clip-rule:evenodd;stroke-linejoin:round;stroke-miterlimit:2;">
    <g transform="matrix(1,0,0,1,-1165,-600)">
        <g transform="matrix(0.288462,0,0,0.285714,1136.15,448.571)">
            <g transform="matrix(3.46667,0,0,3.5,-3938.67,-1570)">
                <path d="M1165,617.429L1180,617.429L1180,604L1185.19,605.385L1185.19,617.429L1230.36,617.429L1240,620L1230.36,622.571L1185.19,622.571L1185.19,634.615L1180,636L1180,622.571L1165,622.571L1165,617.429Z" style="fill:white;"/>
            </g>
            <path d="M152,609L152,656L100,670L100,609L152,609ZM170,651.154L170,609L326.571,609L170,651.154ZM152,544L152,591L100,591L100,530L152,544ZM326.571,591L170,591L170,548.846L326.571,591Z" style="fill:rgb(1,35,107);"/>
        </g>
    </g>
</svg>
