<?xml version="1.0" encoding="UTF-8" standalone="no"?>
<!DOCTYPE svg PUBLIC "-//W3C//DTD SVG 1.1//EN" "http://www.w3.org/Graphics/SVG/1.1/DTD/svg11.dtd">
<svg width="100%" height="100%" viewBox="0 0 43 40" version="1.1" xmlns="http://www.w3.org/2000/svg" xmlns:xlink="http://www.w3.org/1999/xlink" xml:space="preserve" xmlns:serif="http://www.serif.com/" style="fill-rule:evenodd;clip-rule:evenodd;stroke-linejoin:round;stroke-miterlimit:2;">
    <g transform="matrix(1,0,0,1,-1181.35,-659.64)">
        <g transform="matrix(0.247222,0,0,0.247222,1077.72,608.416)">
            <path d="M419.183,212.837L442.761,207.968C432.944,269.863 450.841,315.921 485.934,352.153L455.014,357.79C436.289,310.068 423.58,261.817 419.183,212.837Z" style="fill:white;"/>
            <path d="M474.514,325.119C450.671,293.957 440.086,255.496 447.373,207.197C483.071,210.14 515.517,223.858 540.449,244.763L528.464,244.763L497.137,282.8L497.137,296.331L528.409,296.331L528.409,308.306L544.378,308.306L544.378,296.331L552.024,296.331L552.024,282.689L544.378,282.689L544.378,248.172C571.227,272.287 588.481,305.071 590.259,341.573C558.736,351.133 526.767,353.079 494.311,346.703C488.202,341.063 482.595,335.146 477.527,328.933L552.024,328.933L552.024,315.292L474.514,315.292L474.514,325.119ZM490.483,308.306L490.483,244.763L474.514,244.763L474.514,308.306L490.483,308.306ZM513.15,282.689L528.409,282.689L528.409,264.162L513.15,282.689Z" style="fill:white;"/>
            <path d="M541.175,354.357L544.215,364.42L520.224,368.994L461.696,368.994L541.175,354.357Z" style="fill:white;"/>
        </g>
    </g>
</svg>
